<svg width="38" height="55" viewBox="0 0 38 55" fill="none" xmlns="http://www.w3.org/2000/svg">
<rect width="38" height="55" fill="#E5E5E5"/>
<g clip-path="url(#clip0_0_1)">
<rect width="1920" height="4281" transform="translate(-65 -586)" fill="#F5FAFF"/>
<g filter="url(#filter0_d_0_1)">
<circle cx="20" cy="29" r="35" fill="#F5FAFF"/>
</g>
<path d="M9.49214 19.9279C9.64346 19.8706 9.76583 19.7556 9.83232 19.6081C9.89882 19.4606 9.904 19.2927 9.84673 19.1414L9.77474 18.9512C9.71747 18.7999 9.60243 18.6775 9.45494 18.611C9.30744 18.5445 9.13957 18.5394 8.98826 18.5966C8.83694 18.6539 8.71458 18.7689 8.64808 18.9164C8.58158 19.0639 8.5764 19.2318 8.63368 19.3831L8.70566 19.5733C8.76293 19.7246 8.87797 19.847 9.02546 19.9135C9.17296 19.98 9.34083 19.9851 9.49214 19.9279Z" fill="black"/>
<path d="M13.739 31.1486C13.8903 31.0913 14.0127 30.9763 14.0792 30.8288C14.1457 30.6813 14.1508 30.5134 14.0936 30.3621L10.7823 21.6139C10.725 21.4626 10.61 21.3402 10.4625 21.2737C10.315 21.2072 10.1471 21.202 9.99583 21.2593C9.84451 21.3166 9.72215 21.4316 9.65565 21.5791C9.58915 21.7266 9.58397 21.8945 9.64124 22.0458L12.9525 30.794C13.0098 30.9453 13.1248 31.0677 13.2723 31.1342C13.4198 31.2007 13.5877 31.2058 13.739 31.1486Z" fill="black"/>
<path d="M21.2824 53.9493L34.5948 48.9104C35.25 48.6616 35.7797 48.163 36.0678 47.5241C36.3559 46.8852 36.3787 46.1581 36.1314 45.5023L23.4623 12.031C23.0727 11.0056 22.3039 10.1691 21.315 9.69465C20.326 9.22016 19.1925 9.14395 18.1489 9.48178L17.4992 7.76533L17.8795 7.62136C18.0309 7.56409 18.1532 7.44905 18.2197 7.30155C18.2862 7.15406 18.2914 6.98619 18.2341 6.83488L17.0824 3.79203C16.8335 3.13685 16.335 2.60713 15.696 2.31908C15.0571 2.03102 14.33 2.00816 13.6743 2.2555L6.06717 5.13485C5.41199 5.3837 4.88227 5.88228 4.59422 6.52119C4.30616 7.16011 4.2833 7.8872 4.53064 8.54295L5.68238 11.5858C5.73966 11.7371 5.85469 11.8595 6.00219 11.926C6.14968 11.9925 6.31755 11.9977 6.46887 11.9404L6.84922 11.7964L7.49891 13.5129C6.49318 13.9507 5.69422 14.7584 5.26728 15.7688C4.84035 16.7792 4.81811 17.9151 5.20517 18.9414L17.8743 52.4127C18.1231 53.0679 18.6217 53.5976 19.2606 53.8857C19.8996 54.1737 20.6266 54.1966 21.2824 53.9493ZM5.67171 8.11105C5.53849 7.75795 5.55079 7.36643 5.7059 7.02239C5.86101 6.67835 6.14626 6.40989 6.49907 6.27592L14.1062 3.39657C14.4593 3.26335 14.8508 3.27565 15.1948 3.43076C15.5389 3.58587 15.8073 3.87112 15.9413 4.22393L16.8771 6.69625L6.6075 10.5834L5.67171 8.11105ZM16.3581 8.19723L17.006 9.90883L8.63814 13.0761L7.99029 11.3645L16.3581 8.19723ZM6.34624 18.5095C6.06083 17.7529 6.0872 16.9139 6.41957 16.1767C6.75194 15.4395 7.36317 14.8642 8.11916 14.5771L18.3888 10.69C19.1454 10.4046 19.9844 10.4309 20.7216 10.7633C21.4588 11.0957 22.0341 11.7069 22.3212 12.4629L25.5416 20.9711L17.1365 24.1525C16.9852 24.2097 16.8628 24.3248 16.7963 24.4723C16.7298 24.6198 16.7246 24.7876 16.7819 24.939L17.7656 27.5379C17.8229 27.6892 17.9379 27.8116 18.0854 27.8781C18.2329 27.9446 18.4008 27.9498 18.5521 27.8925C18.7034 27.8352 18.8258 27.7202 18.8923 27.5727C18.9588 27.4252 18.964 27.2573 18.9067 27.106L18.1389 25.0776L25.9735 22.1121L31.3089 36.2081L23.4743 39.1736L20.7063 31.8605C20.649 31.7092 20.534 31.5868 20.3865 31.5203C20.239 31.4538 20.0711 31.4486 19.9198 31.5059C19.7685 31.5632 19.6461 31.6782 19.5796 31.8257C19.5131 31.9732 19.5079 32.1411 19.5652 32.2924L22.5492 40.176C22.6065 40.3273 22.7215 40.4497 22.869 40.5162C23.0165 40.5827 23.1844 40.5879 23.3357 40.5306L31.7408 37.3492L34.9903 45.9342C35.1235 46.2873 35.1112 46.6788 34.9561 47.0229C34.801 47.3669 34.5158 47.6354 34.1629 47.7693L20.8505 52.8082C20.4974 52.9414 20.1059 52.9291 19.7618 52.774C19.4178 52.6189 19.1493 52.3336 19.0154 51.9808L6.34624 18.5095Z" fill="black"/>
</g>
<defs>
<filter id="filter0_d_0_1" x="-45" y="-36" width="130" height="130" filterUnits="userSpaceOnUse" color-interpolation-filters="sRGB">
<feFlood flood-opacity="0" result="BackgroundImageFix"/>
<feColorMatrix in="SourceAlpha" type="matrix" values="0 0 0 0 0 0 0 0 0 0 0 0 0 0 0 0 0 0 127 0" result="hardAlpha"/>
<feOffset/>
<feGaussianBlur stdDeviation="15"/>
<feColorMatrix type="matrix" values="0 0 0 0 0.337255 0 0 0 0 0.337255 0 0 0 0 0.337255 0 0 0 0.25 0"/>
<feBlend mode="normal" in2="BackgroundImageFix" result="effect1_dropShadow_0_1"/>
<feBlend mode="normal" in="SourceGraphic" in2="effect1_dropShadow_0_1" result="shape"/>
</filter>
<clipPath id="clip0_0_1">
<rect width="1920" height="4281" fill="white" transform="translate(-65 -586)"/>
</clipPath>
</defs>
</svg>
