<svg width="69" height="68" viewBox="0 0 69 68" fill="none" xmlns="http://www.w3.org/2000/svg">
<path d="M63.3108 14.8833H63.2184L63.269 14.9607C67.2982 21.122 69.2277 28.4745 68.7234 35.8905C68.1657 44.0901 64.6546 51.81 58.8365 57.6281C52.321 64.1435 43.6344 67.6059 34.7805 67.6059C30.5042 67.6059 26.1896 66.7985 22.0604 65.1374C21.4039 64.8733 21.0858 64.1271 21.35 63.4707L21.3036 63.452L21.35 63.4707C21.6142 62.8141 22.3602 62.4964 23.0167 62.7603C34.7407 67.477 48.0898 64.7512 57.0247 55.8163C67.1564 45.6845 69.0325 29.8776 61.9739 17.7378L61.8806 17.5775V17.7629V19.4147C61.8806 20.1222 61.3071 20.6957 60.5996 20.6957C59.892 20.6957 59.3185 20.1222 59.3185 19.4147V13.6023C59.3185 12.8947 59.892 12.3212 60.5996 12.3212H66.412C67.1195 12.3212 67.693 12.8947 67.693 13.6023C67.693 14.3098 67.1195 14.8833 66.412 14.8833H63.3108Z" fill="#64D370" stroke="#E5E5E5" stroke-width="0.1"/>
<path d="M7.05588 50.3616L7.14882 50.5173V50.3359V48.4416C7.14882 47.734 7.72235 47.1605 8.42989 47.1605C9.13743 47.1605 9.71096 47.734 9.71083 48.4415V54.3759C9.71083 55.0834 9.1373 55.657 8.42976 55.657H2.49544C1.7879 55.657 1.21436 55.0834 1.21436 54.3759C1.21436 53.6683 1.7879 53.0948 2.49544 53.0948H5.65873H5.75187L5.7004 53.0172C1.59174 46.8198 -0.380699 39.3976 0.128491 31.9102C0.686188 23.7108 4.19745 15.9908 10.0155 10.1726C14.8517 5.33641 20.9448 2.10179 27.6359 0.818396C34.1656 -0.434053 40.8577 0.231848 46.9894 2.74388L47.0084 2.69762L46.9894 2.74389C47.6441 3.01201 47.9574 3.76016 47.6893 4.41491C47.421 5.06942 46.673 5.38302 46.0181 5.11464C34.2446 0.29157 20.8236 2.9881 11.8272 11.9844C1.61219 22.1995 -0.209401 38.1832 7.05588 50.3616Z" fill="#64D370" stroke="#E5E5E5" stroke-width="0.1"/>
<path d="M31.2179 28.7607C31.0079 28.8646 30.8477 29.0476 30.7727 29.2695C30.6977 29.4915 30.7138 29.7341 30.8177 29.9441L35.2166 38.8381C35.3205 39.0481 35.5035 39.2083 35.7254 39.2833C35.9474 39.3584 36.19 39.3422 36.4 39.2383C36.61 39.1345 36.7701 38.9514 36.8452 38.7295C36.9202 38.5076 36.904 38.2649 36.8002 38.0549L32.4013 29.1609C32.2974 28.9509 32.1144 28.7908 31.8925 28.7157C31.6705 28.6407 31.4279 28.6569 31.2179 28.7607Z" fill="#64D370" stroke="#64D370" stroke-width="0.2"/>
<path d="M40.5453 36.203L36.1464 27.309C36.0425 27.099 35.8595 26.9389 35.6376 26.8638C35.4157 26.7888 35.173 26.805 34.963 26.9088C34.753 27.0127 34.5929 27.1957 34.5178 27.4177C34.4428 27.6396 34.459 27.8823 34.5628 28.0923L38.9617 36.9863C39.0656 37.1963 39.2486 37.3564 39.4705 37.4314C39.6925 37.5065 39.9351 37.4903 40.1451 37.3864C40.3551 37.2826 40.5153 37.0996 40.5903 36.8776C40.6654 36.6557 40.6492 36.413 40.5453 36.203Z" fill="#64D370" stroke="#64D370" stroke-width="0.2"/>
<path d="M52.3774 17.7281L52.3778 17.7302C52.3878 17.7948 52.3903 17.8602 52.3853 17.9253C52.387 17.9795 52.3836 18.0337 52.3752 18.0872C52.3753 18.1277 52.3724 18.1681 52.3667 18.2081L52.3649 18.2202L52.3604 18.2314L52.337 18.289C52.2042 18.6239 49.0135 26.4652 43.101 31.9464L45.1349 36.0588C45.9347 37.6041 46.2225 39.3637 45.9568 41.0834L45.9564 41.0857L45.6553 42.7696C45.6552 42.7702 45.6552 42.7707 45.6551 42.7713C45.4634 44.1055 45.6898 45.4664 46.3032 46.6667L46.3038 46.6679L49.5798 53.2916C49.6836 53.5016 49.6998 53.7442 49.6248 53.9662C49.5497 54.1881 49.3896 54.3711 49.1796 54.475C48.9696 54.5789 48.727 54.595 48.505 54.52C48.2831 54.4449 48.1001 54.2848 47.9962 54.0748L44.7205 47.4518C43.9279 45.9109 43.6435 44.1586 43.908 42.4461L43.9084 42.4438L44.2094 40.7598C44.2095 40.7593 44.2096 40.7587 44.2097 40.7582C44.4025 39.417 44.1728 38.049 43.5525 36.8443L43.5517 36.8428L38.3078 26.2402C38.2039 26.0303 38.1877 25.7876 38.2628 25.5657C38.3378 25.3437 38.498 25.1607 38.708 25.0568C38.918 24.953 39.1606 24.9368 39.3826 25.0118C39.6045 25.0869 39.7875 25.247 39.8914 25.457L42.2826 30.2918C46.5255 26.1845 49.2891 20.7364 50.3041 18.5644C47.5932 17.9536 39.8507 16.5439 33.2328 18.4328C33.7171 20.482 34.0411 22.5659 34.2017 24.6656L34.2018 24.6659C34.2189 24.8996 34.1425 25.1306 33.9894 25.3079C33.8362 25.4853 33.6189 25.5946 33.3852 25.6118C33.1515 25.6289 32.9205 25.5525 32.7432 25.3994C32.5659 25.2464 32.4567 25.0293 32.4394 24.7958C32.1427 21.377 31.437 18.0065 30.3377 14.7565L21.3662 41.264C23.3336 40.9682 27.0888 40.0092 29.61 36.9258L27.0732 31.7967C26.9694 31.5867 26.9532 31.3441 27.0282 31.1222C27.1033 30.9002 27.2634 30.7172 27.4734 30.6133C27.6834 30.5095 27.9261 30.4933 28.148 30.5683C28.3699 30.6434 28.553 30.8035 28.6568 31.0135L33.9008 41.6161L33.9015 41.6176L33.9015 41.6176C34.4822 42.8419 35.43 43.8548 36.6132 44.5153C36.6137 44.5156 36.6142 44.5158 36.6147 44.5161L38.1357 45.2989L38.1378 45.2999C39.6596 46.1288 40.8798 47.4184 41.6231 48.9838L44.8987 55.6068C45.0026 55.8168 45.0188 56.0594 44.9437 56.2814C44.8687 56.5033 44.7085 56.6863 44.4985 56.7902C44.2886 56.8941 44.0459 56.9102 43.824 56.8352C43.602 56.7601 43.419 56.6 43.3151 56.39L40.0391 49.7663L40.0385 49.7651C39.4571 48.5488 38.5127 47.5428 37.3356 46.8857C37.3352 46.8855 37.3349 46.8852 37.3345 46.885L35.8035 46.0832L35.8021 46.0825C34.2803 45.2536 33.0602 43.964 32.3168 42.3986L30.46 38.6443C29.3507 39.8303 28.0327 40.8029 26.5714 41.5133M52.3774 17.7281L26.5277 41.4233M52.3774 17.7281C52.3571 17.6137 52.3052 17.5073 52.2277 17.421C52.1962 17.3761 52.1605 17.3344 52.121 17.2965L52.1212 17.2963L52.1154 17.2914C52.0721 17.2556 52.0253 17.2241 51.9759 17.1973C51.9438 17.1727 51.9099 17.1505 51.8745 17.1307L51.8665 17.1263L51.8579 17.1233L51.7949 17.1021L51.795 17.1016L51.786 17.0995C51.7689 17.0954 51.7388 17.0878 51.6963 17.077C50.5886 16.7967 41.0508 14.3827 32.7771 16.7215C32.3265 15.0338 31.7702 13.3761 31.1116 11.7582L31.1118 11.7581L31.1086 11.7515L31.1086 11.7515L31.1086 11.7515L31.1086 11.7515L31.1086 11.7515L31.1086 11.7515L31.1085 11.7515L31.1085 11.7514L31.1085 11.7514L31.1085 11.7514L31.1085 11.7514L31.1085 11.7514L31.1085 11.7514L31.1085 11.7513L31.1085 11.7513L31.1085 11.7513L31.1085 11.7513L31.1085 11.7513L31.1085 11.7513L31.1084 11.7512L31.1084 11.7512L31.1084 11.7512L31.1084 11.7512L31.1084 11.7512L31.1084 11.7512L31.1084 11.7511L31.1084 11.7511L31.1084 11.7511L31.1084 11.7511L31.1084 11.7511L31.1083 11.751L31.1083 11.751L31.1083 11.751L31.1083 11.751L31.1083 11.7509L31.1083 11.7509L31.1083 11.7509L31.1083 11.7509L31.1083 11.7509L31.1083 11.7509L31.1082 11.7509L31.1082 11.7508L31.1082 11.7508L31.1082 11.7508L31.1082 11.7508L31.1082 11.7508L31.1082 11.7508L31.1082 11.7508L31.1082 11.7507L31.1082 11.7507L31.1082 11.7507L31.1082 11.7507L31.1082 11.7507L31.1082 11.7507L31.1081 11.7506L31.1081 11.7506L31.1081 11.7506L31.1081 11.7506L31.1081 11.7506L31.1081 11.7506L31.1081 11.7505L31.1081 11.7505L31.1081 11.7505L31.1081 11.7505L31.1081 11.7505L31.108 11.7505L31.108 11.7504L31.108 11.7504L31.108 11.7504L31.108 11.7504L31.108 11.7504L31.108 11.7503L31.108 11.7503L31.108 11.7503L31.108 11.7503L31.108 11.7503L31.1079 11.7502L31.1079 11.7502L31.1079 11.7502L31.1079 11.7502L31.1079 11.7501L31.1079 11.7501L31.1079 11.7501L31.1079 11.7501L31.1079 11.7501L31.1078 11.75L31.1078 11.75L31.1078 11.75L31.1078 11.75L31.1078 11.7499L31.1078 11.7499L31.1078 11.7499L31.1078 11.7499L31.1077 11.7498L31.1077 11.7498L31.1077 11.7498L31.1077 11.7498L31.1077 11.7497L31.1077 11.7497L31.1077 11.7497L31.1077 11.7497L31.1076 11.7496L31.1076 11.7496L31.1076 11.7496L31.1076 11.7495L31.1076 11.7495L31.1076 11.7495L31.1076 11.7495L31.1075 11.7494L31.1075 11.7494L31.1075 11.7494L31.1075 11.7493L31.1075 11.7493L31.1075 11.7493L31.1075 11.7492L31.1074 11.7492L31.1074 11.7492L31.1074 11.7492L31.1074 11.7491L31.1074 11.7491L31.1074 11.7491L31.1073 11.749L31.1073 11.749L31.1073 11.749L31.1073 11.7489L31.1073 11.7489L31.1073 11.7489L31.1072 11.7488L31.1072 11.7488L31.1072 11.7488L31.1072 11.7487L31.1072 11.7487L31.1072 11.7486L31.1071 11.7486L31.1071 11.7486L31.1071 11.7485L31.1071 11.7485L31.1071 11.7485L31.107 11.7484L31.107 11.7484L31.107 11.7483L31.107 11.7483L31.107 11.7483L31.1069 11.7482L31.1069 11.7482L31.1069 11.7481L31.1069 11.7481L31.1069 11.7481L31.1068 11.748L31.1068 11.748L31.1068 11.7479L31.1068 11.7479L31.1068 11.7479L31.1067 11.7478L31.1067 11.7478L31.1067 11.7477L31.1067 11.7477L31.1067 11.7476L31.1066 11.7476L31.1066 11.7476L31.1066 11.7475L31.1066 11.7475L31.1065 11.7474L31.1065 11.7474L31.1065 11.7473L31.1065 11.7473L31.1065 11.7472L31.1064 11.7472L31.1064 11.7471L31.1064 11.7471L31.1064 11.747L31.1063 11.747L31.1063 11.7469L31.1063 11.7469L31.1063 11.7468L31.1062 11.7468L31.1062 11.7467L31.1062 11.7467L31.1062 11.7466L31.1061 11.7466L31.1061 11.7465L31.1061 11.7465L31.1061 11.7464L31.106 11.7464L31.106 11.7463L31.106 11.7463L31.106 11.7462L31.1059 11.7462L31.1059 11.7461L31.1059 11.7461L31.1058 11.746L31.1058 11.7459L31.1058 11.7459L31.1058 11.7458L31.1057 11.7458L31.1057 11.7457L31.1057 11.7457L31.1056 11.7456L31.1056 11.7455L31.1056 11.7455L31.1056 11.7454L31.1055 11.7454L31.1055 11.7453L31.1055 11.7452L31.1054 11.7452L31.1054 11.7451L31.1054 11.7451L31.1053 11.745L31.1053 11.7449L31.1053 11.7449L31.1053 11.7448L31.1052 11.7447L31.1052 11.7447L31.1052 11.7446L31.1051 11.7445L31.1051 11.7445L31.1051 11.7444L31.105 11.7444L31.105 11.7443L31.105 11.7442L31.1049 11.7442L31.1049 11.7441L31.1049 11.744L31.1048 11.7439L31.1048 11.7439L31.1048 11.7438L31.1047 11.7437L31.1047 11.7437L31.1047 11.7436L31.1046 11.7435L31.1046 11.7435L31.1046 11.7434L31.1045 11.7433L31.1045 11.7432L31.1044 11.7432L31.1044 11.7431L31.1044 11.743L31.1043 11.7429L31.1043 11.7429L31.1043 11.7428L31.1042 11.7427L31.1042 11.7426L31.1041 11.7426L31.1041 11.7425L31.1041 11.7424L31.104 11.7423L31.104 11.7423L31.104 11.7422L31.1039 11.7421L31.1039 11.742L31.1038 11.7419L31.1038 11.7419L31.1038 11.7418L31.1037 11.7417L31.1037 11.7416L31.1036 11.7415L31.1036 11.7414L31.1036 11.7414L31.1035 11.7413L31.1035 11.7412L31.1034 11.7411L31.1034 11.741L31.1033 11.7409L31.1033 11.7409L31.1033 11.7408L31.1032 11.7407L31.1032 11.7406L31.1031 11.7405L31.1031 11.7404L31.103 11.7403L31.103 11.7402L31.103 11.7401L31.1029 11.7401L31.1029 11.74L31.1028 11.7399L31.1028 11.7398L31.1027 11.7397L31.1027 11.7396L31.1026 11.7395L31.1026 11.7394L31.1025 11.7393L31.1025 11.7392L31.1024 11.7391L31.1024 11.739L31.1024 11.7389L31.1023 11.7388L31.1023 11.7387L31.1022 11.7386L31.1022 11.7385L31.1021 11.7384L31.1021 11.7383L31.102 11.7382L31.102 11.7381L31.1019 11.738L31.1019 11.7379L31.1018 11.7378L31.1018 11.7377L31.1017 11.7376L31.1017 11.7375L31.1016 11.7374L31.1016 11.7373L31.1015 11.7372L31.1015 11.7371L31.1014 11.737L31.1013 11.7369L31.1013 11.7368L31.1012 11.7367L31.1012 11.7366L31.1011 11.7365L31.1011 11.7364L31.101 11.7363L31.101 11.7361L31.1009 11.736L31.1009 11.7359L31.1008 11.7358L31.1008 11.7357L31.1007 11.7356L31.1006 11.7355L31.1006 11.7354L31.1005 11.7352L31.1005 11.7351L31.1004 11.735L31.1004 11.7349L31.1003 11.7348L31.1002 11.7347L31.1002 11.7345L31.1001 11.7344L31.1001 11.7343L31.1 11.7342L31.0999 11.7341L31.0999 11.734L31.0998 11.7338L31.0998 11.7337L31.0997 11.7336L31.0996 11.7335L31.0996 11.7333L31.0995 11.7332L31.0995 11.7331L31.0994 11.733L31.0993 11.7328L31.0993 11.7327L31.0992 11.7326L31.0992 11.7325L31.0991 11.7323L31.099 11.7322L31.099 11.7321L31.0989 11.732L31.0988 11.7318L31.0988 11.7317L31.0987 11.7316L31.0986 11.7314L31.0986 11.7313L31.0985 11.7312L31.0984 11.731L31.0984 11.7309L31.0983 11.7308L31.0982 11.7306L31.0982 11.7305L31.0981 11.7304L31.098 11.7302L31.098 11.7301L31.0979 11.7299L31.0978 11.7298L31.0978 11.7297L31.0977 11.7295L31.0976 11.7294L31.0976 11.7293L31.0975 11.7291L31.0974 11.729L31.0974 11.7288L31.0973 11.7287L31.0972 11.7285L31.0971 11.7284L31.0971 11.7282L31.097 11.7281L31.0969 11.728L31.0969 11.7278L31.0968 11.7277L31.0967 11.7275L31.0966 11.7274L31.0966 11.7272L31.0965 11.7271L31.0964 11.7269L31.0963 11.7268L31.0963 11.7266L31.0962 11.7265L31.0961 11.7263L31.096 11.7262L31.096 11.726L31.0959 11.7258L31.0958 11.7257L31.0957 11.7255L31.0956 11.7254L31.0956 11.7252L31.0955 11.7251L31.0954 11.7249L31.0953 11.7247L31.0953 11.7246L31.0952 11.7244L31.0951 11.7243L31.095 11.7241L31.0949 11.7239L31.0949 11.7238L31.0948 11.7236L31.0947 11.7234L31.0946 11.7233L31.0945 11.7231L31.0945 11.723L31.0944 11.7228L31.0943 11.7226L31.0942 11.7225L31.0941 11.7223L31.0941 11.7221L31.094 11.722L31.0939 11.7218L31.0938 11.7217L31.0937 11.7215L31.0937 11.7214L31.0936 11.7212L31.0935 11.721L31.0934 11.7209L31.0933 11.7207L31.0933 11.7206L31.0932 11.7204L31.0931 11.7203L31.093 11.7201L31.093 11.72L31.0929 11.7198L31.0928 11.7197L31.0927 11.7195L31.0927 11.7193L31.0926 11.7192L31.0925 11.719L31.0924 11.7189L31.0924 11.7187L31.0923 11.7186L31.0922 11.7184L31.0921 11.7183L31.0921 11.7182L31.092 11.718L31.0919 11.7179L31.0919 11.7177L31.0918 11.7176L31.0917 11.7174L31.0916 11.7173L31.0916 11.7171L31.0915 11.717L31.0914 11.7168L31.0914 11.7167L31.0913 11.7166L31.0912 11.7164L31.0911 11.7163L31.0911 11.7161L31.091 11.716L31.0909 11.7159L31.0909 11.7157L31.0908 11.7156L31.0907 11.7154L31.0907 11.7153L31.0906 11.7152L31.0905 11.715L31.0905 11.7149L31.0904 11.7148L31.0903 11.7146L31.0903 11.7145L31.0902 11.7143L31.0901 11.7142L31.0901 11.7141L31.09 11.7139L31.0899 11.7138L31.0899 11.7137L31.0898 11.7135L31.0897 11.7134L31.0897 11.7133L31.0896 11.7131L31.0895 11.713L31.0895 11.7129L31.0894 11.7128L31.0893 11.7126L31.0893 11.7125L31.0892 11.7124L31.0891 11.7122L31.0891 11.7121L31.089 11.712L31.089 11.7119L31.0889 11.7117L31.0888 11.7116L31.0888 11.7115L31.0887 11.7114L31.0886 11.7112L31.0886 11.7111L31.0885 11.711L31.0885 11.7109L31.0884 11.7107L31.0883 11.7106L31.0883 11.7105L31.0882 11.7104L31.0882 11.7102L31.0881 11.7101L31.088 11.71L31.088 11.7099L31.0879 11.7098L31.0879 11.7096L31.0878 11.7095L31.0877 11.7094L31.0877 11.7093L31.0876 11.7092L31.0876 11.709L31.0875 11.7089L31.0874 11.7088L31.0874 11.7087L31.0873 11.7086L31.0873 11.7084L31.0872 11.7083L31.0872 11.7082L31.0871 11.7081L31.087 11.708L31.087 11.7079L31.0869 11.7078L31.0869 11.7076L31.0868 11.7075L31.0868 11.7074L31.0867 11.7073L31.0867 11.7072L31.0866 11.7071L31.0865 11.707L31.0865 11.7069L31.0864 11.7067L31.0864 11.7066L31.0863 11.7065L31.0863 11.7064L31.0862 11.7063L31.0862 11.7062L31.0861 11.7061L31.086 11.706L31.086 11.7059L31.0859 11.7058L31.0859 11.7056L31.0858 11.7055L31.0858 11.7054L31.0857 11.7053L31.0857 11.7052L31.0856 11.7051L31.0856 11.705L31.0855 11.7049L31.0855 11.7048L31.0854 11.7047L31.0854 11.7046L31.0853 11.7045L31.0853 11.7044L31.0852 11.7043L31.0852 11.7042L31.0851 11.7041L31.0851 11.704L31.085 11.7038L31.0849 11.7037L31.0849 11.7036L31.0848 11.7035L31.0848 11.7034L31.0847 11.7033L31.0847 11.7032L31.0846 11.7031L31.0846 11.703L31.0845 11.7029L31.0845 11.7028L31.0844 11.7027L31.0844 11.7026L31.0843 11.7025L31.0843 11.7024L31.0843 11.7023L31.0842 11.7022L31.0842 11.7021L31.0841 11.702L31.0841 11.7019L31.084 11.7018L31.084 11.7017L31.0839 11.7016L31.0839 11.7016L31.0838 11.7015L31.0838 11.7014L31.0837 11.7013L31.0837 11.7012L31.0836 11.7011L31.0836 11.701L31.0835 11.7009L31.0835 11.7008L31.0834 11.7007L31.0834 11.7006L31.0833 11.7005L31.0833 11.7004L31.0832 11.7003L31.0832 11.7002L31.0832 11.7001L31.0831 11.7L31.0831 11.6999L31.083 11.6998L31.083 11.6998L31.0829 11.6997L31.0829 11.6996L31.0828 11.6995L31.0828 11.6994L31.0827 11.6993L31.0827 11.6992L31.0827 11.6991L31.0826 11.699L31.0826 11.6989L31.0825 11.6988L31.0825 11.6987L31.0824 11.6987L31.0824 11.6986L31.0823 11.6985L31.0823 11.6984L31.0823 11.6983L31.0822 11.6982L31.0822 11.6981L31.0821 11.698L31.0821 11.6979L31.082 11.6979L31.082 11.6978L31.0819 11.6977L31.0819 11.6976L31.0819 11.6975L31.0818 11.6974L31.0818 11.6973L31.0817 11.6972L31.0817 11.6972L31.0816 11.6971L31.0816 11.697L31.0816 11.6969L31.0815 11.6968L31.0815 11.6967L31.0814 11.6966L31.0814 11.6965L31.0813 11.6965L31.0813 11.6964L31.0813 11.6963L31.0812 11.6962L31.0812 11.6961L31.0811 11.696L31.0811 11.6959L31.081 11.6959L31.081 11.6958L31.081 11.6957L31.0809 11.6956L31.0809 11.6955L31.0808 11.6954L31.0808 11.6954L31.0808 11.6953L31.0807 11.6952L31.0807 11.6951L31.0806 11.695L31.0806 11.6949L31.0806 11.6949L31.0805 11.6948L31.0805 11.6947L31.0804 11.6946L31.0804 11.6945L31.0803 11.6944L31.0803 11.6944L31.0803 11.6943L31.0802 11.6942L31.0802 11.6941L31.0801 11.694L31.0801 11.6939L31.0801 11.6939L31.08 11.6938L31.08 11.6937L31.0799 11.6936L31.0799 11.6935L31.0799 11.6935L31.0798 11.6934L31.0798 11.6933L31.0797 11.6932L31.0797 11.6931L31.0797 11.6931L31.0796 11.693L31.0796 11.6929L31.0795 11.6928L31.0795 11.6927L31.0795 11.6926L31.0794 11.6926L31.0794 11.6925L31.0793 11.6924L31.0793 11.6923L31.0793 11.6922L31.0792 11.6922L31.0792 11.6921L31.0791 11.692L31.0791 11.6919L31.0791 11.6918L31.079 11.6918L31.079 11.6917L31.0789 11.6916L31.0789 11.6915L31.0789 11.6914L31.0788 11.6914L31.0788 11.6913L31.0787 11.6912L31.0787 11.6911L31.0787 11.691L31.0786 11.691L31.0786 11.6909L31.0786 11.6908L31.0785 11.6907L31.0785 11.6907L31.0784 11.6906L31.0784 11.6905L31.0784 11.6904L31.0783 11.6903L31.0783 11.6903L31.0782 11.6902L31.0782 11.6901L31.0782 11.69L31.0781 11.6899L31.0781 11.6899L31.078 11.6898L31.078 11.6897L31.078 11.6896L31.0779 11.6895L31.0779 11.6895L31.0778 11.6894L31.0778 11.6893L31.0778 11.6892L31.0777 11.6892L31.0777 11.6891L31.0777 11.689L31.0776 11.6889L31.0776 11.6888L31.0775 11.6888L31.0775 11.6887L31.0775 11.6886L31.0774 11.6885L31.0774 11.6884L31.0773 11.6884L31.0773 11.6883L31.0773 11.6882L31.0772 11.6881L31.0772 11.688L31.0771 11.688L31.0771 11.6879L31.0771 11.6878L31.077 11.6877L31.077 11.6877L31.0769 11.6876L31.0769 11.6875L31.0769 11.6874L31.0768 11.6873L31.0768 11.6873L31.0768 11.6872L31.0767 11.6871L31.0767 11.687L31.0766 11.6869L31.0766 11.6869L31.0766 11.6868L31.0765 11.6867L31.0765 11.6866L31.0764 11.6865L31.0764 11.6865L31.0764 11.6864L31.0763 11.6863L31.0763 11.6862L31.0762 11.6861L31.0762 11.6861L31.0762 11.686L31.0761 11.6859L31.0761 11.6858L31.076 11.6857L31.076 11.6857L31.076 11.6856L31.0759 11.6855L31.0759 11.6854L31.0758 11.6853L31.0758 11.6853L31.0758 11.6852L31.0757 11.6851L31.0757 11.685L31.0756 11.6849L31.0756 11.6849L31.0756 11.6848L31.0755 11.6847L31.0755 11.6846L31.0754 11.6845L31.0754 11.6844L31.0754 11.6844L31.0753 11.6843L31.0753 11.6842L31.0752 11.6841L31.0752 11.684L31.0752 11.684L31.0751 11.6839L31.0751 11.6838L31.075 11.6837L31.075 11.6836L31.075 11.6835L31.0749 11.6835L31.0749 11.6834L31.0748 11.6833L31.0748 11.6832L31.0747 11.6831L31.0747 11.683L31.0747 11.683L31.0746 11.6829L31.0746 11.6828L31.0745 11.6827L31.0745 11.6826L31.0745 11.6825L31.0744 11.6825L31.0744 11.6824L31.0743 11.6823L31.0743 11.6822L31.0742 11.6821L31.0742 11.682L31.0742 11.6819L31.0741 11.6819L31.0741 11.6818L31.074 11.6817L31.074 11.6816L31.074 11.6815L31.0739 11.6814L31.0739 11.6813L31.0738 11.6813L31.0738 11.6812L31.0737 11.6811L31.0737 11.681L31.0737 11.6809L31.0736 11.6808L31.0736 11.6807L31.0735 11.6806L31.0735 11.6806L31.0734 11.6805L31.0734 11.6804L31.0733 11.6803L31.0733 11.6802L31.0733 11.6801L31.0732 11.68L31.0732 11.6799L31.0731 11.6798L31.0731 11.6798L31.073 11.6797L31.073 11.6796L31.073 11.6795L31.0729 11.6794L31.0729 11.6793L31.0728 11.6792L31.0728 11.6791L31.0727 11.679L31.0727 11.6789L31.0726 11.6789L31.0726 11.6788L31.0725 11.6787L31.0725 11.6786L31.0725 11.6785L31.0724 11.6784L31.0724 11.6783L31.0723 11.6782L31.0723 11.6781L31.0722 11.678L31.0722 11.6779L31.0721 11.6778L31.0721 11.6777L31.072 11.6776L31.072 11.6776L31.0719 11.6775L31.0719 11.6774L31.0719 11.6773L31.0718 11.6772L31.0718 11.6771L31.0717 11.677L31.0717 11.6769L31.0716 11.6768L31.0716 11.6767L31.0715 11.6766L31.0715 11.6765L31.0714 11.6764L31.0714 11.6763L31.0713 11.6762L31.0713 11.6761L31.0712 11.676L31.0712 11.6759L31.0711 11.6758L52.3774 17.7281ZM26.5714 41.5133L26.5277 41.4233M26.5714 41.5133C26.5715 41.5132 26.5716 41.5132 26.5717 41.5132L26.5277 41.4233M26.5714 41.5133C24.5513 42.5011 22.3508 43.066 20.1048 43.1735M26.5277 41.4233C24.5135 42.4083 22.3189 42.9702 20.0792 43.0746M20.1048 43.1735L20.1236 43.1642L20.0792 43.0746M20.1048 43.1735L20.0861 43.1827L20.0607 43.1953L20.0326 43.1927L19.9532 43.1853L19.9458 43.1847L19.9386 43.1829L19.8126 43.152L19.7996 43.1488L19.7999 43.148L19.7276 43.1196L19.7228 43.1177L19.7228 43.1176C19.6711 43.0941 19.6217 43.0656 19.5755 43.0325L19.5551 43.018L19.544 42.9955L19.5376 42.9825M20.1048 43.1735C20.0978 43.1738 20.0909 43.1742 20.0839 43.1745L20.0792 43.0746M20.0792 43.0746L19.5376 42.9825M19.5376 42.9825C19.2498 42.7489 17.3642 41.1423 15.8793 38.5407C14.3587 35.8767 13.2553 32.1635 14.7256 27.8157C16.4307 22.7616 20.4805 18.5561 23.5648 15.9222C25.5375 14.2245 27.6549 12.7025 29.8927 11.3736L29.8993 11.3697L29.8994 11.3699L30.0913 11.275L30.098 11.2717L30.1052 11.2694C30.1686 11.2491 30.234 11.2359 30.3003 11.2299L30.3111 11.2246L30.3316 11.2144L30.3545 11.2142C30.4271 11.2135 30.4996 11.2218 30.5703 11.2389L30.5741 11.2398L30.574 11.2398C30.651 11.2616 30.7246 11.2939 30.7927 11.3358L30.8172 11.3509L30.8299 11.3766L30.832 11.3807C30.8912 11.4217 30.9452 11.4699 30.9925 11.5243L30.998 11.5306L31.0024 11.5378L19.5376 42.9825ZM30.4126 38.5485C30.4369 38.5223 30.4611 38.4961 30.4852 38.4697L30.5327 38.5658L30.4126 38.5485ZM19.0245 23.3178C21.9906 19.121 26.1697 15.8994 28.6545 14.1992L22.9126 31.179L19.0245 23.3178ZM19.6929 40.7118C17.8805 38.8791 14.3441 34.3294 16.3703 28.3369C16.7681 27.1852 17.2802 26.0763 17.8988 25.0269L22.1145 33.5505L19.6929 40.7118Z" fill="#64D370" stroke="#64D370" stroke-width="0.2"/>
</svg>
