<svg width="100" height="69" viewBox="0 0 100 69" fill="none" xmlns="http://www.w3.org/2000/svg">
<path d="M71.2511 28.7604V28.8604H71.3511H84.4277C88.518 28.8604 92.2796 30.8851 94.4938 34.2751L94.5775 34.2204L94.4938 34.2751L99.5501 42.0115L99.6338 41.9568L99.5501 42.0115C99.7072 42.2519 99.7915 42.535 99.7915 42.8242V60.4726C99.7915 61.2939 99.1276 61.9586 98.3064 61.9586H92.9635H92.884L92.8661 62.0359C91.9744 65.8714 88.5344 68.7414 84.4323 68.7414C80.3302 68.7414 76.891 65.8714 75.9985 62.0359L75.9805 61.9586H75.9011H45.3956H45.3162L45.2982 62.0359C44.4066 65.8714 40.9684 68.7414 36.8644 68.7414C32.7614 68.7414 29.3223 65.8714 28.4307 62.0359L28.4127 61.9586H28.3333H14.2704C13.4501 61.9586 12.7845 61.2938 12.7845 60.4726V58.9076C12.7845 55.7027 14.721 52.9486 17.4817 51.7308L17.5413 51.7045V51.6393V44.617V44.517H17.4413H1.58568C0.764479 44.517 0.0997559 43.8522 0.0997559 43.031C0.0997559 42.2098 0.764479 41.5451 1.58568 41.5451H17.4413H17.5413V41.4451V38.2742V38.1742H17.4413H11.0985C10.2782 38.1742 9.61351 37.5103 9.61351 36.6891C9.61351 35.8679 10.2783 35.2032 11.0985 35.2032H17.4413H17.5413V35.1032V31.9323V31.8323H17.4413H1.58568C0.764479 31.8323 0.0997559 31.1675 0.0997559 30.3463C0.0997559 29.5251 0.764479 28.8604 1.58568 28.8604H14.6787H15.0085L14.7342 28.6772C10.5835 25.9059 7.8425 21.1832 7.8425 15.8298C7.8425 7.31577 14.7693 0.388086 23.2842 0.388086C30.8037 0.388086 37.0781 5.79574 38.4429 12.9236L38.4584 13.0047H38.5411H63.0204C67.5597 13.0047 71.2511 16.6962 71.2511 21.2354V28.7604ZM20.6123 44.517H20.5123V44.617V50.9607V51.0607H20.6123C20.6234 51.0607 20.6329 51.0593 20.6361 51.0589H68.1802H68.2802V50.9589V21.2354C68.2802 18.3359 65.9209 15.9757 63.0214 15.9757H38.8142H38.7157L38.7142 16.0741C38.6313 21.3257 35.9208 25.9484 31.8343 28.6772L31.56 28.8604H31.8898H41.2248C42.0452 28.8604 42.7107 29.5252 42.7107 30.3463C42.7107 31.1675 42.0452 31.8323 41.2248 31.8323H20.6123H20.5123V31.9323V35.1032V35.2032H20.6123H31.712C32.5322 35.2032 33.197 35.8679 33.197 36.6891C33.197 37.5103 32.5323 38.1742 31.712 38.1742H20.6123H20.5123V38.2742V41.4451V41.5451H20.6123H23.7832C24.6044 41.5451 25.2692 42.2098 25.2692 43.031C25.2692 43.8522 24.6044 44.517 23.7832 44.517H20.6123ZM68.1802 58.9867H68.2802V58.8867V54.1298V54.0298H68.1802H43.2862H43.0571L43.2128 54.1978C44.3942 55.4725 45.1941 57.0976 45.4408 58.9002L45.4526 58.9867H45.5398H68.1802ZM30.5161 54.1978L30.6716 54.0298H30.4427H20.6322C17.9506 54.0298 15.7665 56.2074 15.7554 58.8863L15.755 58.9867H15.8554H28.1899H28.2772L28.289 58.9002C28.5347 57.0976 29.3355 55.4725 30.5161 54.1978ZM96.7205 58.9867H96.8205V58.8867V43.296V43.2662L96.8042 43.2413L92.0074 35.8995L91.9237 35.9542L92.0074 35.8995C90.3428 33.3522 87.5085 31.8323 84.4277 31.8323H71.3511H71.2511V31.9323V58.8867V58.9867H71.3511H75.7569H75.8441L75.8559 58.9002C76.4336 54.6783 80.0548 51.4109 84.4323 51.4109C88.8098 51.4109 92.4319 54.6783 93.0086 58.9002L93.0204 58.9867H93.1077H96.7205ZM23.2842 3.35904C16.4081 3.35904 10.8134 8.95365 10.8134 15.8298C10.8134 22.706 16.4081 28.3006 23.2842 28.3006C30.1613 28.3006 35.755 22.706 35.755 15.8298C35.755 8.95366 30.1613 3.35904 23.2842 3.35904ZM31.1701 60.0761C31.1701 63.2161 33.7254 65.7704 36.8644 65.7704C40.0044 65.7704 42.5587 63.2161 42.5587 60.0761C42.5587 56.9371 40.0044 54.3818 36.8644 54.3818C33.7253 54.3818 31.1701 56.9371 31.1701 60.0761ZM78.738 60.0761C78.738 63.2161 81.2932 65.7704 84.4323 65.7704C87.5723 65.7704 90.1266 63.2161 90.1266 60.0761C90.1266 56.9371 87.5723 54.3818 84.4323 54.3818C81.2932 54.3818 78.738 56.9371 78.738 60.0761Z" fill="#64D370" stroke="#E5E5E5" stroke-width="0.2"/>
<path d="M22.2784 15.3717L22.2976 15.3454V15.3128V8.89288C22.2976 8.07171 22.9623 7.40786 23.7826 7.40786C24.6039 7.40786 25.2686 8.07175 25.2686 8.89288V15.83C25.2686 16.1453 25.1682 16.4514 24.9838 16.7047L21.4427 21.5604L21.4426 21.5605C21.152 21.96 20.6999 22.1717 20.2415 22.1717C19.9381 22.1717 19.6323 22.0791 19.3669 21.8852L19.3668 21.8851C18.7038 21.4023 18.5584 20.4742 19.0421 19.8111L19.0421 19.811L22.2784 15.3717Z" fill="#64D370" stroke="#E5E5E5" stroke-width="0.2"/>
<path d="M93.8409 43.7184L93.841 43.7186C94.315 44.545 94.3142 45.5357 93.8331 46.364C93.352 47.1925 92.4948 47.6879 91.5362 47.6879H80.8647C80.0435 47.6879 79.3788 47.0231 79.3788 46.2019V35.1031C79.3788 34.2819 80.0435 33.6172 80.8647 33.6172H83.8978C86.4712 33.6172 88.8633 35.0061 90.1383 37.2377L93.8409 43.7184ZM82.3507 44.6169V44.7169H82.4507H90.8167H90.989L90.9035 44.5673L87.5584 38.7126C87.5584 38.7126 87.5584 38.7126 87.5584 38.7126C86.8102 37.4021 85.4079 36.5891 83.8978 36.5891H82.4507H82.3507V36.6891V44.6169Z" fill="#64D370" stroke="#E5E5E5" stroke-width="0.2"/>
</svg>
