<svg width="71" height="69" viewBox="0 0 71 69" fill="none" xmlns="http://www.w3.org/2000/svg">
<mask id="path-1-outside-1_2709_74" maskUnits="userSpaceOnUse" x="0" y="0" width="71" height="69" fill="black">
<rect fill="white" width="71" height="69"/>
<path d="M64.3111 15.7807H67.4123C68.1474 15.7807 68.7434 15.1848 68.7434 14.4497C68.7434 13.7145 68.1474 13.1186 67.4123 13.1186H61.5999C60.8647 13.1186 60.2688 13.7145 60.2688 14.4497V20.2621C60.2688 20.9972 60.8647 21.5931 61.5999 21.5931C62.335 21.5931 62.931 20.9972 62.931 20.2621V18.6103C69.9783 30.7308 68.1051 46.5128 57.9896 56.6283C49.0689 65.5491 35.7411 68.2706 24.0357 63.5614C23.3536 63.2872 22.5784 63.6173 22.3039 64.2994C22.0295 64.9815 22.36 65.7568 23.042 66.0312C27.1773 67.6947 31.4982 68.5034 35.7808 68.5034C44.6477 68.5034 53.3471 65.0358 59.8721 58.5109C65.6988 52.6842 69.2151 44.9529 69.7736 36.7413C70.2786 29.3144 68.3463 21.9512 64.3111 15.7807Z"/>
<path d="M9.43014 47.9579C8.69498 47.9579 8.09906 48.5538 8.09906 49.289V51.1833C0.84538 39.0244 2.66416 23.0659 12.8628 12.8672C21.8449 3.88512 35.2446 1.19289 46.9994 6.00831C47.6799 6.28717 48.4571 5.96133 48.7358 5.28128C49.0144 4.60097 48.6888 3.82362 48.0086 3.54503C41.8679 1.0293 35.1659 0.362432 28.6267 1.6167C21.9257 2.90199 15.8237 6.14142 10.9804 10.9847C5.1538 16.8114 1.63737 24.5427 1.07885 32.7542C0.568916 40.2526 2.54423 47.6857 6.65897 53.8922H3.49568C2.76053 53.8922 2.16461 54.4881 2.16461 55.2233C2.16461 55.9584 2.76053 56.5544 3.49568 56.5544H9.43C10.1652 56.5544 10.7611 55.9584 10.7611 55.2233V49.289C10.7612 48.5538 10.1653 47.9579 9.43014 47.9579Z"/>
<path d="M32.2625 29.6978C32.0763 29.7899 31.9343 29.9522 31.8677 30.149C31.8012 30.3458 31.8155 30.561 31.9076 30.7472L36.3065 39.6412C36.3986 39.8274 36.5609 39.9695 36.7577 40.036C36.9545 40.1026 37.1697 40.0882 37.3559 39.9961C37.5422 39.904 37.6842 39.7417 37.7507 39.5449C37.8173 39.3481 37.8029 39.1329 37.7108 38.9467L33.3119 30.0527C33.2198 29.8664 33.0575 29.7244 32.8607 29.6579C32.6639 29.5913 32.4487 29.6057 32.2625 29.6978Z"/>
<path d="M41.456 37.0948L37.0571 28.2008C36.965 28.0145 36.8027 27.8725 36.6059 27.806C36.4091 27.7394 36.1939 27.7538 36.0077 27.8459C35.8215 27.938 35.6795 28.1003 35.6129 28.2971C35.5464 28.4939 35.5607 28.7091 35.6528 28.8953L40.0517 37.7893C40.1438 37.9756 40.3061 38.1176 40.5029 38.1841C40.6997 38.2507 40.9149 38.2363 41.1011 38.1442C41.2874 38.0521 41.4294 37.8898 41.4959 37.693C41.5625 37.4962 41.5481 37.281 41.456 37.0948Z"/>
<path d="M53.2793 18.5929C53.2619 18.495 53.217 18.404 53.1497 18.3308C53.121 18.2893 53.0884 18.2508 53.0521 18.2159C53.0117 18.1826 52.968 18.1534 52.9216 18.1289C52.8915 18.1053 52.8596 18.0841 52.8262 18.0655L52.7632 18.0442C52.2942 17.9324 42.2913 15.2242 33.707 17.6929C33.2528 15.9754 32.6891 14.2887 32.0193 12.6433C32.0193 12.6433 32.0193 12.6433 32.0054 12.6152C31.9915 12.5871 31.9892 12.5824 31.9799 12.5637C31.9629 12.5198 31.942 12.4775 31.9174 12.4373C31.8701 12.3829 31.8152 12.3355 31.7545 12.2965L31.7407 12.2684C31.6804 12.2313 31.6153 12.2027 31.5472 12.1835C31.4845 12.1683 31.4202 12.161 31.3558 12.1616L31.3277 12.1755C31.2625 12.1798 31.1982 12.1921 31.136 12.212L30.9441 12.307C28.7112 13.6329 26.5986 15.1516 24.6302 16.8455C21.5499 19.4759 17.517 23.667 15.8207 28.695C12.9036 37.3214 20.1942 43.4277 20.6178 43.7658L20.634 43.7986C20.675 43.8279 20.7186 43.8531 20.7645 43.8739L20.8368 43.9022L20.9627 43.9332L21.0421 43.9405L21.0796 43.922C23.3193 43.8176 25.5139 43.2557 27.5281 42.2707C29.0217 41.5446 30.3645 40.5425 31.4855 39.3171L33.4072 43.2024C34.1414 44.749 35.3468 46.0232 36.8503 46.842L38.3835 47.6451C39.5793 48.3123 40.5385 49.334 41.1291 50.5694L44.4051 57.1931C44.4972 57.3793 44.6595 57.5213 44.8563 57.5879C45.0531 57.6544 45.2683 57.6401 45.4546 57.548C45.6408 57.4558 45.7828 57.2935 45.8493 57.0967C45.9159 56.8999 45.9015 56.6847 45.8094 56.4985L42.5334 49.8748C41.7992 48.3282 40.5938 47.054 39.0903 46.2352L37.5663 45.4508C36.3643 44.7803 35.4013 43.7515 34.8115 42.5078L29.5675 31.9052C29.4754 31.719 29.3131 31.577 29.1163 31.5105C28.9195 31.4439 28.7043 31.4583 28.5181 31.5504C28.3319 31.6425 28.1899 31.8048 28.1233 32.0016C28.0568 32.1984 28.0711 32.4136 28.1632 32.5998L30.7285 37.7864C28.1127 41.0261 24.1546 41.9642 22.2196 42.2337L31.3375 15.2934C32.494 18.637 33.2336 22.1106 33.5394 25.6353C33.5546 25.8425 33.6515 26.0353 33.8088 26.1711C33.9661 26.3069 34.171 26.3746 34.3782 26.3594C34.5855 26.3442 34.7782 26.2473 34.914 26.09C35.0498 25.9327 35.1176 25.7279 35.1024 25.5206C34.9397 23.3945 34.6091 21.2845 34.1138 19.2104C40.8789 17.2453 48.8388 18.7442 51.4473 19.3417C50.469 21.4511 47.6418 27.1024 43.2539 31.306L40.8021 26.3487C40.71 26.1625 40.5477 26.0205 40.3509 25.954C40.154 25.8874 39.9389 25.9018 39.7526 25.9939C39.5664 26.086 39.4244 26.2483 39.3579 26.4451C39.2913 26.6419 39.3057 26.8571 39.3978 27.0433L44.6417 37.6459C45.2718 38.8696 45.505 40.2592 45.3088 41.6215L45.0072 43.3088C44.7458 45.0007 45.0269 46.7319 45.8102 48.2542L49.0862 54.8779C49.1783 55.0641 49.3406 55.2061 49.5374 55.2727C49.7342 55.3392 49.9494 55.3248 50.1356 55.2327C50.3218 55.1406 50.4638 54.9783 50.5304 54.7815C50.597 54.5847 50.5826 54.3695 50.4905 54.1833L47.2145 47.5596C46.5914 46.3404 46.3616 44.958 46.5567 43.6027L46.8583 41.9155C47.1208 40.2165 46.8364 38.478 46.046 36.9513L43.9785 32.7712C49.9088 27.3038 53.1122 19.433 53.2444 19.0996L53.268 19.0413C53.2735 19.0034 53.276 18.9652 53.2755 18.9269C53.2842 18.8752 53.2875 18.8228 53.2855 18.7704C53.2905 18.7112 53.2884 18.6516 53.2793 18.5929ZM29.8449 14.7965L23.9303 32.2872L19.9088 24.1562C22.9873 19.7788 27.3855 16.4557 29.8449 14.7965ZM20.7364 41.7438C18.9573 39.9845 15.187 35.3298 17.276 29.1521C17.696 27.9358 18.2428 26.7671 18.9073 25.6652L23.2229 34.3907L20.7364 41.7438Z"/>
</mask>
<path d="M64.3111 15.7807H67.4123C68.1474 15.7807 68.7434 15.1848 68.7434 14.4497C68.7434 13.7145 68.1474 13.1186 67.4123 13.1186H61.5999C60.8647 13.1186 60.2688 13.7145 60.2688 14.4497V20.2621C60.2688 20.9972 60.8647 21.5931 61.5999 21.5931C62.335 21.5931 62.931 20.9972 62.931 20.2621V18.6103C69.9783 30.7308 68.1051 46.5128 57.9896 56.6283C49.0689 65.5491 35.7411 68.2706 24.0357 63.5614C23.3536 63.2872 22.5784 63.6173 22.3039 64.2994C22.0295 64.9815 22.36 65.7568 23.042 66.0312C27.1773 67.6947 31.4982 68.5034 35.7808 68.5034C44.6477 68.5034 53.3471 65.0358 59.8721 58.5109C65.6988 52.6842 69.2151 44.9529 69.7736 36.7413C70.2786 29.3144 68.3463 21.9512 64.3111 15.7807Z" fill="#64D370"/>
<path d="M9.43014 47.9579C8.69498 47.9579 8.09906 48.5538 8.09906 49.289V51.1833C0.84538 39.0244 2.66416 23.0659 12.8628 12.8672C21.8449 3.88512 35.2446 1.19289 46.9994 6.00831C47.6799 6.28717 48.4571 5.96133 48.7358 5.28128C49.0144 4.60097 48.6888 3.82362 48.0086 3.54503C41.8679 1.0293 35.1659 0.362432 28.6267 1.6167C21.9257 2.90199 15.8237 6.14142 10.9804 10.9847C5.1538 16.8114 1.63737 24.5427 1.07885 32.7542C0.568916 40.2526 2.54423 47.6857 6.65897 53.8922H3.49568C2.76053 53.8922 2.16461 54.4881 2.16461 55.2233C2.16461 55.9584 2.76053 56.5544 3.49568 56.5544H9.43C10.1652 56.5544 10.7611 55.9584 10.7611 55.2233V49.289C10.7612 48.5538 10.1653 47.9579 9.43014 47.9579Z" fill="#64D370"/>
<path d="M32.2625 29.6978C32.0763 29.7899 31.9343 29.9522 31.8677 30.149C31.8012 30.3458 31.8155 30.561 31.9076 30.7472L36.3065 39.6412C36.3986 39.8274 36.5609 39.9695 36.7577 40.036C36.9545 40.1026 37.1697 40.0882 37.3559 39.9961C37.5422 39.904 37.6842 39.7417 37.7507 39.5449C37.8173 39.3481 37.8029 39.1329 37.7108 38.9467L33.3119 30.0527C33.2198 29.8664 33.0575 29.7244 32.8607 29.6579C32.6639 29.5913 32.4487 29.6057 32.2625 29.6978Z" fill="#64D370"/>
<path d="M41.456 37.0948L37.0571 28.2008C36.965 28.0145 36.8027 27.8725 36.6059 27.806C36.4091 27.7394 36.1939 27.7538 36.0077 27.8459C35.8215 27.938 35.6795 28.1003 35.6129 28.2971C35.5464 28.4939 35.5607 28.7091 35.6528 28.8953L40.0517 37.7893C40.1438 37.9756 40.3061 38.1176 40.5029 38.1841C40.6997 38.2507 40.9149 38.2363 41.1011 38.1442C41.2874 38.0521 41.4294 37.8898 41.4959 37.693C41.5625 37.4962 41.5481 37.281 41.456 37.0948Z" fill="#64D370"/>
<path d="M53.2793 18.5929C53.2619 18.495 53.217 18.404 53.1497 18.3308C53.121 18.2893 53.0884 18.2508 53.0521 18.2159C53.0117 18.1826 52.968 18.1534 52.9216 18.1289C52.8915 18.1053 52.8596 18.0841 52.8262 18.0655L52.7632 18.0442C52.2942 17.9324 42.2913 15.2242 33.707 17.6929C33.2528 15.9754 32.6891 14.2887 32.0193 12.6433C32.0193 12.6433 32.0193 12.6433 32.0054 12.6152C31.9915 12.5871 31.9892 12.5824 31.9799 12.5637C31.9629 12.5198 31.942 12.4775 31.9174 12.4373C31.8701 12.3829 31.8152 12.3355 31.7545 12.2965L31.7407 12.2684C31.6804 12.2313 31.6153 12.2027 31.5472 12.1835C31.4845 12.1683 31.4202 12.161 31.3558 12.1616L31.3277 12.1755C31.2625 12.1798 31.1982 12.1921 31.136 12.212L30.9441 12.307C28.7112 13.6329 26.5986 15.1516 24.6302 16.8455C21.5499 19.4759 17.517 23.667 15.8207 28.695C12.9036 37.3214 20.1942 43.4277 20.6178 43.7658L20.634 43.7986C20.675 43.8279 20.7186 43.8531 20.7645 43.8739L20.8368 43.9022L20.9627 43.9332L21.0421 43.9405L21.0796 43.922C23.3193 43.8176 25.5139 43.2557 27.5281 42.2707C29.0217 41.5446 30.3645 40.5425 31.4855 39.3171L33.4072 43.2024C34.1414 44.749 35.3468 46.0232 36.8503 46.842L38.3835 47.6451C39.5793 48.3123 40.5385 49.334 41.1291 50.5694L44.4051 57.1931C44.4972 57.3793 44.6595 57.5213 44.8563 57.5879C45.0531 57.6544 45.2683 57.6401 45.4546 57.548C45.6408 57.4558 45.7828 57.2935 45.8493 57.0967C45.9159 56.8999 45.9015 56.6847 45.8094 56.4985L42.5334 49.8748C41.7992 48.3282 40.5938 47.054 39.0903 46.2352L37.5663 45.4508C36.3643 44.7803 35.4013 43.7515 34.8115 42.5078L29.5675 31.9052C29.4754 31.719 29.3131 31.577 29.1163 31.5105C28.9195 31.4439 28.7043 31.4583 28.5181 31.5504C28.3319 31.6425 28.1899 31.8048 28.1233 32.0016C28.0568 32.1984 28.0711 32.4136 28.1632 32.5998L30.7285 37.7864C28.1127 41.0261 24.1546 41.9642 22.2196 42.2337L31.3375 15.2934C32.494 18.637 33.2336 22.1106 33.5394 25.6353C33.5546 25.8425 33.6515 26.0353 33.8088 26.1711C33.9661 26.3069 34.171 26.3746 34.3782 26.3594C34.5855 26.3442 34.7782 26.2473 34.914 26.09C35.0498 25.9327 35.1176 25.7279 35.1024 25.5206C34.9397 23.3945 34.6091 21.2845 34.1138 19.2104C40.8789 17.2453 48.8388 18.7442 51.4473 19.3417C50.469 21.4511 47.6418 27.1024 43.2539 31.306L40.8021 26.3487C40.71 26.1625 40.5477 26.0205 40.3509 25.954C40.154 25.8874 39.9389 25.9018 39.7526 25.9939C39.5664 26.086 39.4244 26.2483 39.3579 26.4451C39.2913 26.6419 39.3057 26.8571 39.3978 27.0433L44.6417 37.6459C45.2718 38.8696 45.505 40.2592 45.3088 41.6215L45.0072 43.3088C44.7458 45.0007 45.0269 46.7319 45.8102 48.2542L49.0862 54.8779C49.1783 55.0641 49.3406 55.2061 49.5374 55.2727C49.7342 55.3392 49.9494 55.3248 50.1356 55.2327C50.3218 55.1406 50.4638 54.9783 50.5304 54.7815C50.597 54.5847 50.5826 54.3695 50.4905 54.1833L47.2145 47.5596C46.5914 46.3404 46.3616 44.958 46.5567 43.6027L46.8583 41.9155C47.1208 40.2165 46.8364 38.478 46.046 36.9513L43.9785 32.7712C49.9088 27.3038 53.1122 19.433 53.2444 19.0996L53.268 19.0413C53.2735 19.0034 53.276 18.9652 53.2755 18.9269C53.2842 18.8752 53.2875 18.8228 53.2855 18.7704C53.2905 18.7112 53.2884 18.6516 53.2793 18.5929ZM29.8449 14.7965L23.9303 32.2872L19.9088 24.1562C22.9873 19.7788 27.3855 16.4557 29.8449 14.7965ZM20.7364 41.7438C18.9573 39.9845 15.187 35.3298 17.276 29.1521C17.696 27.9358 18.2428 26.7671 18.9073 25.6652L23.2229 34.3907L20.7364 41.7438Z" fill="#64D370"/>
<path d="M64.3111 15.7807H67.4123C68.1474 15.7807 68.7434 15.1848 68.7434 14.4497C68.7434 13.7145 68.1474 13.1186 67.4123 13.1186H61.5999C60.8647 13.1186 60.2688 13.7145 60.2688 14.4497V20.2621C60.2688 20.9972 60.8647 21.5931 61.5999 21.5931C62.335 21.5931 62.931 20.9972 62.931 20.2621V18.6103C69.9783 30.7308 68.1051 46.5128 57.9896 56.6283C49.0689 65.5491 35.7411 68.2706 24.0357 63.5614C23.3536 63.2872 22.5784 63.6173 22.3039 64.2994C22.0295 64.9815 22.36 65.7568 23.042 66.0312C27.1773 67.6947 31.4982 68.5034 35.7808 68.5034C44.6477 68.5034 53.3471 65.0358 59.8721 58.5109C65.6988 52.6842 69.2151 44.9529 69.7736 36.7413C70.2786 29.3144 68.3463 21.9512 64.3111 15.7807Z" stroke="#64D370" stroke-width="0.4" mask="url(#path-1-outside-1_2709_74)"/>
<path d="M9.43014 47.9579C8.69498 47.9579 8.09906 48.5538 8.09906 49.289V51.1833C0.84538 39.0244 2.66416 23.0659 12.8628 12.8672C21.8449 3.88512 35.2446 1.19289 46.9994 6.00831C47.6799 6.28717 48.4571 5.96133 48.7358 5.28128C49.0144 4.60097 48.6888 3.82362 48.0086 3.54503C41.8679 1.0293 35.1659 0.362432 28.6267 1.6167C21.9257 2.90199 15.8237 6.14142 10.9804 10.9847C5.1538 16.8114 1.63737 24.5427 1.07885 32.7542C0.568916 40.2526 2.54423 47.6857 6.65897 53.8922H3.49568C2.76053 53.8922 2.16461 54.4881 2.16461 55.2233C2.16461 55.9584 2.76053 56.5544 3.49568 56.5544H9.43C10.1652 56.5544 10.7611 55.9584 10.7611 55.2233V49.289C10.7612 48.5538 10.1653 47.9579 9.43014 47.9579Z" stroke="#64D370" stroke-width="0.4" mask="url(#path-1-outside-1_2709_74)"/>
<path d="M32.2625 29.6978C32.0763 29.7899 31.9343 29.9522 31.8677 30.149C31.8012 30.3458 31.8155 30.561 31.9076 30.7472L36.3065 39.6412C36.3986 39.8274 36.5609 39.9695 36.7577 40.036C36.9545 40.1026 37.1697 40.0882 37.3559 39.9961C37.5422 39.904 37.6842 39.7417 37.7507 39.5449C37.8173 39.3481 37.8029 39.1329 37.7108 38.9467L33.3119 30.0527C33.2198 29.8664 33.0575 29.7244 32.8607 29.6579C32.6639 29.5913 32.4487 29.6057 32.2625 29.6978Z" stroke="#64D370" stroke-width="0.4" mask="url(#path-1-outside-1_2709_74)"/>
<path d="M41.456 37.0948L37.0571 28.2008C36.965 28.0145 36.8027 27.8725 36.6059 27.806C36.4091 27.7394 36.1939 27.7538 36.0077 27.8459C35.8215 27.938 35.6795 28.1003 35.6129 28.2971C35.5464 28.4939 35.5607 28.7091 35.6528 28.8953L40.0517 37.7893C40.1438 37.9756 40.3061 38.1176 40.5029 38.1841C40.6997 38.2507 40.9149 38.2363 41.1011 38.1442C41.2874 38.0521 41.4294 37.8898 41.4959 37.693C41.5625 37.4962 41.5481 37.281 41.456 37.0948Z" stroke="#64D370" stroke-width="0.4" mask="url(#path-1-outside-1_2709_74)"/>
<path d="M53.2793 18.5929C53.2619 18.495 53.217 18.404 53.1497 18.3308C53.121 18.2893 53.0884 18.2508 53.0521 18.2159C53.0117 18.1826 52.968 18.1534 52.9216 18.1289C52.8915 18.1053 52.8596 18.0841 52.8262 18.0655L52.7632 18.0442C52.2942 17.9324 42.2913 15.2242 33.707 17.6929C33.2528 15.9754 32.6891 14.2887 32.0193 12.6433C32.0193 12.6433 32.0193 12.6433 32.0054 12.6152C31.9915 12.5871 31.9892 12.5824 31.9799 12.5637C31.9629 12.5198 31.942 12.4775 31.9174 12.4373C31.8701 12.3829 31.8152 12.3355 31.7545 12.2965L31.7407 12.2684C31.6804 12.2313 31.6153 12.2027 31.5472 12.1835C31.4845 12.1683 31.4202 12.161 31.3558 12.1616L31.3277 12.1755C31.2625 12.1798 31.1982 12.1921 31.136 12.212L30.9441 12.307C28.7112 13.6329 26.5986 15.1516 24.6302 16.8455C21.5499 19.4759 17.517 23.667 15.8207 28.695C12.9036 37.3214 20.1942 43.4277 20.6178 43.7658L20.634 43.7986C20.675 43.8279 20.7186 43.8531 20.7645 43.8739L20.8368 43.9022L20.9627 43.9332L21.0421 43.9405L21.0796 43.922C23.3193 43.8176 25.5139 43.2557 27.5281 42.2707C29.0217 41.5446 30.3645 40.5425 31.4855 39.3171L33.4072 43.2024C34.1414 44.749 35.3468 46.0232 36.8503 46.842L38.3835 47.6451C39.5793 48.3123 40.5385 49.334 41.1291 50.5694L44.4051 57.1931C44.4972 57.3793 44.6595 57.5213 44.8563 57.5879C45.0531 57.6544 45.2683 57.6401 45.4546 57.548C45.6408 57.4558 45.7828 57.2935 45.8493 57.0967C45.9159 56.8999 45.9015 56.6847 45.8094 56.4985L42.5334 49.8748C41.7992 48.3282 40.5938 47.054 39.0903 46.2352L37.5663 45.4508C36.3643 44.7803 35.4013 43.7515 34.8115 42.5078L29.5675 31.9052C29.4754 31.719 29.3131 31.577 29.1163 31.5105C28.9195 31.4439 28.7043 31.4583 28.5181 31.5504C28.3319 31.6425 28.1899 31.8048 28.1233 32.0016C28.0568 32.1984 28.0711 32.4136 28.1632 32.5998L30.7285 37.7864C28.1127 41.0261 24.1546 41.9642 22.2196 42.2337L31.3375 15.2934C32.494 18.637 33.2336 22.1106 33.5394 25.6353C33.5546 25.8425 33.6515 26.0353 33.8088 26.1711C33.9661 26.3069 34.171 26.3746 34.3782 26.3594C34.5855 26.3442 34.7782 26.2473 34.914 26.09C35.0498 25.9327 35.1176 25.7279 35.1024 25.5206C34.9397 23.3945 34.6091 21.2845 34.1138 19.2104C40.8789 17.2453 48.8388 18.7442 51.4473 19.3417C50.469 21.4511 47.6418 27.1024 43.2539 31.306L40.8021 26.3487C40.71 26.1625 40.5477 26.0205 40.3509 25.954C40.154 25.8874 39.9389 25.9018 39.7526 25.9939C39.5664 26.086 39.4244 26.2483 39.3579 26.4451C39.2913 26.6419 39.3057 26.8571 39.3978 27.0433L44.6417 37.6459C45.2718 38.8696 45.505 40.2592 45.3088 41.6215L45.0072 43.3088C44.7458 45.0007 45.0269 46.7319 45.8102 48.2542L49.0862 54.8779C49.1783 55.0641 49.3406 55.2061 49.5374 55.2727C49.7342 55.3392 49.9494 55.3248 50.1356 55.2327C50.3218 55.1406 50.4638 54.9783 50.5304 54.7815C50.597 54.5847 50.5826 54.3695 50.4905 54.1833L47.2145 47.5596C46.5914 46.3404 46.3616 44.958 46.5567 43.6027L46.8583 41.9155C47.1208 40.2165 46.8364 38.478 46.046 36.9513L43.9785 32.7712C49.9088 27.3038 53.1122 19.433 53.2444 19.0996L53.268 19.0413C53.2735 19.0034 53.276 18.9652 53.2755 18.9269C53.2842 18.8752 53.2875 18.8228 53.2855 18.7704C53.2905 18.7112 53.2884 18.6516 53.2793 18.5929ZM29.8449 14.7965L23.9303 32.2872L19.9088 24.1562C22.9873 19.7788 27.3855 16.4557 29.8449 14.7965ZM20.7364 41.7438C18.9573 39.9845 15.187 35.3298 17.276 29.1521C17.696 27.9358 18.2428 26.7671 18.9073 25.6652L23.2229 34.3907L20.7364 41.7438Z" stroke="#64D370" stroke-width="0.4" mask="url(#path-1-outside-1_2709_74)"/>
</svg>
