<svg width="51" height="65" viewBox="0 0 51 65" fill="none" xmlns="http://www.w3.org/2000/svg">
<path d="M8.31857 53.3706L9.09817 53.5105C9.2899 53.5449 11.2203 53.8782 13.877 53.8782C17.8525 53.8782 23.4535 53.1316 27.2817 49.5196C33.6682 43.4939 32.3801 32.0816 32.3222 31.5986L32.2278 30.8123L31.4482 30.6724C30.9695 30.5864 19.6513 28.6377 13.2647 34.6635C6.87815 40.6891 8.16625 52.1015 8.22421 52.5844L8.31857 53.3706ZM25.8121 47.9619C21.7494 51.7953 15.0329 51.8863 11.6156 51.6409L21.2065 42.5918L28.3354 44.4417C27.7059 45.7393 26.8839 46.9506 25.8121 47.9619ZM29.1437 42.4391L23.0455 40.8566L30.3096 34.0029C30.3374 36.0719 30.1731 39.3344 29.1437 42.4391ZM28.7508 32.5295L16.7576 43.8452L15.1688 35.8335C19.1884 32.4436 25.4057 32.3092 28.7508 32.5295ZM13.3719 37.782L14.9184 45.5804L10.235 49.9994C10.2117 46.9658 10.6151 41.6024 13.3719 37.782Z" fill="#64D370"/>
<path d="M43.0412 11.2313C43.0412 8.46707 41.9646 5.86802 40.0099 3.91338C38.0564 1.95817 35.4572 0.881348 32.6913 0.881348C31.8296 0.881348 30.9732 0.988131 30.1461 1.19841L30.674 3.27368C31.3287 3.10708 32.0075 3.02272 32.6913 3.02272C34.8849 3.02272 36.9461 3.87655 38.4954 5.42718C40.0459 6.97768 40.8999 9.03896 40.8999 11.2313V19.3928H30.6213V11.2317C30.6213 5.52469 25.9784 0.881776 20.2714 0.881776C14.5643 0.881776 9.92142 5.52469 9.92142 11.2317V19.3928H-0.000244141V59.1508C-0.000244141 62.1028 2.40123 64.5042 5.35317 64.5042H45.1826C48.1346 64.5042 50.536 62.1028 50.536 59.1508V19.3928H43.0412V11.2313ZM12.0628 11.2319C12.0628 6.70558 15.7451 3.02329 20.2714 3.02329C24.7976 3.02329 28.4799 6.70558 28.4799 11.2319V19.3929H24.4827V11.2314C24.4827 10.223 24.663 9.24082 25.0186 8.31246L23.0189 7.54657C22.5693 8.72032 22.3414 9.96017 22.3414 11.2314V19.3929H12.0628V11.2319ZM38.4016 59.1508C38.4016 60.922 36.9608 62.3629 35.1896 62.3629H5.35317C3.58198 62.3629 2.14112 60.922 2.14112 59.1508V21.5341H38.4016V59.1508ZM45.1826 62.3629H41.321L44.4688 56.8767L47.2045 61.6442C46.6522 62.0932 45.9484 62.3629 45.1826 62.3629ZM43.3981 21.5341V27.6013H45.5395V21.5341H48.3947V59.1508C48.3947 59.2339 48.3905 59.316 48.3842 59.3975L45.5395 54.4399V30.4565H43.3981V54.4399L40.5358 59.4286C40.5406 59.3365 40.543 59.244 40.543 59.1508V21.5341H43.3981Z" fill="#64D370"/>
</svg>
