<svg width="69" height="69" viewBox="0 0 69 69" fill="none" xmlns="http://www.w3.org/2000/svg">
<path d="M34.0834 67.9174C15.427 67.9174 0.249756 52.7401 0.249756 34.0837C0.249756 15.4273 15.427 0.25 34.0834 0.25C52.7399 0.25 67.9171 15.4273 67.9171 34.0837C67.9171 52.7401 52.7399 67.9174 34.0834 67.9174ZM34.0834 4.01046C17.5001 4.01046 4.01022 17.5003 4.01022 34.0837C4.01022 50.6671 17.5001 64.1569 34.0834 64.1569C50.6668 64.1569 64.1567 50.6671 64.1567 34.0837C64.1567 17.5003 50.6668 4.01046 34.0834 4.01046Z" fill="#64D370" stroke="#E5E5E5" stroke-width="0.5"/>
<path d="M47.6672 51.7445L47.6666 51.7439L32.755 36.8323C32.4014 36.4787 32.2036 35.9998 32.2036 35.504V15.6215C32.2036 14.5837 33.046 13.7413 34.0838 13.7413C35.1217 13.7413 35.9641 14.5837 35.9641 15.6215V34.6204V34.7239L36.0373 34.7972L50.3243 49.0842C51.0588 49.8187 51.0588 51.0094 50.3243 51.7439L50.3237 51.7445C49.9578 52.1127 49.4776 52.2958 48.9955 52.2958C48.5133 52.2958 48.0331 52.1127 47.6672 51.7445Z" fill="#64D370" stroke="#E5E5E5" stroke-width="0.5"/>
</svg>
