<svg width="63" height="63" viewBox="0 0 63 63" fill="none" xmlns="http://www.w3.org/2000/svg">
<path d="M60.5144 32.3553C60.5844 32.1527 60.5891 31.9331 60.528 31.7276C60.4669 31.522 60.343 31.3408 60.1737 31.2092C60.0043 31.0777 59.798 31.0025 59.5838 30.9941C59.3695 30.9857 59.158 31.0446 58.9789 31.1626C57.1734 32.3516 55.1736 32.9055 52.6853 32.9055C46.0318 32.9055 40.6189 27.3615 40.6189 20.547C40.6189 15.4094 43.936 10.562 48.6854 8.75895C48.8846 8.68349 49.0554 8.54795 49.1742 8.3711C49.293 8.19425 49.3538 7.98484 49.3482 7.77188C49.3427 7.55892 49.2711 7.35296 49.1433 7.18253C49.0155 7.01209 48.8378 6.88562 48.6349 6.82063C46.7512 6.21616 44.5824 6.13464 42.7095 6.13464C32.1732 6.13464 23.6014 14.8875 23.6014 25.6462C23.6 27.2657 23.7963 28.8794 24.1859 30.4513C22.9266 29.9903 21.5961 29.7543 20.255 29.7539C13.9482 29.7539 8.81764 34.8214 8.81764 41.0501C8.8182 41.9035 8.91823 42.754 9.11571 43.5842C7.08322 43.9134 5.20836 44.8812 3.76287 46.3474C1.99624 48.1227 1.00588 50.5263 1.00904 53.0308C1.00904 58.3159 5.36166 62.6155 10.7117 62.6155H42.8119C48.6405 62.6155 53.3822 57.9319 53.3822 52.1751C53.3794 50.5904 53.0139 49.0274 52.3135 47.6059C51.6131 46.1843 50.5966 44.942 49.3417 43.9742C54.5342 42.0323 58.6272 37.8213 60.5144 32.3553ZM51.3283 52.1751C51.3283 56.7993 47.5079 60.5616 42.8119 60.5616H10.7117C6.4941 60.5616 3.06289 57.1833 3.06289 53.0308C3.06101 51.0669 3.83813 49.1825 5.22379 47.7909C6.61678 46.3802 8.50191 45.5636 10.4838 45.5124C10.646 45.5076 10.8047 45.4645 10.947 45.3865C11.0893 45.3085 11.211 45.1979 11.3023 45.0638C11.3936 44.9297 11.4518 44.7758 11.4722 44.6148C11.4926 44.4539 11.4745 44.2904 11.4195 44.1378C11.0592 43.1481 10.8736 42.1033 10.8711 41.0501C10.8711 35.9539 15.0807 31.8077 20.2546 31.8077C24.1542 31.8077 27.687 34.2338 29.0456 37.8437C29.0951 37.9754 29.1712 38.0955 29.269 38.1965C29.3669 38.2975 29.4844 38.3774 29.6144 38.4311C29.7444 38.4849 29.884 38.5114 30.0247 38.5089C30.1653 38.5064 30.3039 38.4751 30.432 38.4169C31.3221 38.0091 32.2897 37.7981 33.2688 37.7982C36.4885 37.7982 39.284 40.0501 39.9162 43.1528C39.9704 43.4187 40.1277 43.6524 40.3536 43.8027C40.5796 43.9531 40.8559 44.0079 41.1221 43.9551C41.6786 43.8446 42.2446 43.7887 42.812 43.7882C47.5079 43.7885 51.3283 47.5507 51.3283 52.1751ZM46.9593 42.5734C45.2933 41.8708 43.4762 41.6032 41.6784 41.7956C40.5183 38.2374 37.1262 35.7447 33.2687 35.7447C32.3487 35.7439 31.4343 35.8872 30.5586 36.1693C29.6882 34.3905 28.3683 32.8698 26.7295 31.7578C26.0151 29.7995 25.6514 27.7307 25.6552 25.6462C25.6552 16.0199 33.3058 8.18849 42.7095 8.18849C43.5006 8.18849 44.3461 8.20338 45.186 8.27039C41.1797 10.9466 38.5651 15.6337 38.5651 20.547C38.5651 28.494 44.8994 34.9594 52.6853 34.9594C54.4642 34.9594 56.0371 34.712 57.4842 34.1948C55.2748 38.3672 51.4952 41.4086 46.9593 42.573V42.5734Z" fill="#64D370"/>
<path fill-rule="evenodd" clip-rule="evenodd" d="M8.81754 41.0501C8.81754 34.8214 13.9481 29.7539 20.2549 29.7539C21.5559 29.7543 22.847 29.9765 24.0728 30.4106C24.1106 30.424 24.1482 30.4376 24.1858 30.4513C24.1762 30.4124 24.1667 30.3735 24.1573 30.3346C23.7866 28.7995 23.5999 27.2257 23.6013 25.6462C23.6013 14.8875 32.1731 6.13467 42.7094 6.13467C44.5823 6.13467 46.7511 6.21618 48.6348 6.82065C48.8377 6.88564 49.0154 7.01211 49.1432 7.18255C49.271 7.35299 49.3426 7.55895 49.3481 7.7719C49.3537 7.98486 49.2929 8.19427 49.1741 8.37112C49.0553 8.54798 48.8845 8.68352 48.6853 8.75897C43.9359 10.562 40.6188 15.4095 40.6188 20.547C40.6188 27.3616 46.0317 32.9055 52.6852 32.9055C55.1735 32.9055 57.1733 32.3517 58.9788 31.1626C59.1579 31.0447 59.3694 30.9857 59.5837 30.9941C59.7979 31.0025 60.0042 31.0777 60.1736 31.2093C60.3429 31.3408 60.4668 31.5221 60.5279 31.7276C60.5891 31.9332 60.5843 32.1527 60.5143 32.3554C58.6404 37.7827 54.5918 41.9729 49.4513 43.9328C49.4148 43.9467 49.3783 43.9605 49.3416 43.9742C49.3726 43.9981 49.4034 44.0221 49.434 44.0463C50.6464 45.0034 51.6303 46.2194 52.3134 47.6059C53.0138 49.0274 53.3793 50.5904 53.3821 52.1751C53.3821 57.9319 48.6404 62.6155 42.8118 62.6155H10.7116C5.36156 62.6155 1.00894 58.3159 1.00894 53.0308C1.00578 50.5263 1.99614 48.1228 3.76277 46.3475C5.1848 44.905 7.02237 43.945 9.01675 43.6008C9.04966 43.5951 9.08262 43.5896 9.11561 43.5843C9.10788 43.5518 9.1003 43.5192 9.09286 43.4867C8.91045 42.6874 8.81808 41.8701 8.81754 41.0501ZM8.99408 43.5032C8.81086 42.6985 8.71809 41.8757 8.71754 41.0501V41.0501C8.71754 34.765 13.894 29.6539 20.2549 29.6539C21.5456 29.6543 22.8267 29.8711 24.0449 30.2949C23.6825 28.7721 23.4999 27.2119 23.5013 25.6461C23.5013 25.6462 23.5013 25.6462 23.5013 25.6462M23.5013 25.6461C23.5013 14.8342 32.116 6.03467 42.7094 6.03467C44.5829 6.03467 46.7654 6.11578 48.6654 6.72542C48.888 6.79674 49.0829 6.93553 49.2232 7.12256C49.3634 7.30959 49.442 7.53561 49.4481 7.7693C49.4542 8.003 49.3874 8.2328 49.2571 8.42687C49.1268 8.62095 48.9393 8.76969 48.7207 8.85249C44.0108 10.6406 40.7188 15.4504 40.7188 20.547C40.7188 27.3086 46.0892 32.8055 52.6852 32.8055C55.157 32.8055 57.137 32.2558 58.9238 31.0791C59.1203 30.9497 59.3524 30.885 59.5876 30.8942C59.8227 30.9034 60.0491 30.9859 60.2349 31.1303C60.4208 31.2746 60.5567 31.4736 60.6238 31.6991C60.6909 31.9247 60.6856 32.1656 60.6088 32.388C58.7323 37.823 54.685 42.0252 49.5427 44.0049C50.7453 44.9655 51.7222 46.1797 52.4031 47.5617C53.1102 48.9969 53.4793 50.575 53.4821 52.175V52.1751C53.4821 57.9883 48.6944 62.7155 42.8118 62.7155H10.7116C5.30749 62.7155 0.908943 58.3723 0.908943 53.0308C0.908943 53.0309 0.908943 53.0309 0.908943 53.0309M0.908943 53.0308C0.905782 50.5 1.90652 48.0712 3.69166 46.2772C5.127 44.8213 6.98135 43.8518 8.99408 43.5032M3.16279 53.0307V53.0308C3.16279 57.1266 6.54776 60.4616 10.7116 60.4616H42.8118C47.454 60.4616 51.2282 56.7427 51.2282 52.1751C51.2282 47.6075 47.4541 43.8885 42.812 43.8882C42.2511 43.8887 41.6916 43.944 41.1415 44.0532L41.1414 44.0532C40.8493 44.1111 40.5461 44.051 40.2982 43.886C40.0502 43.7211 39.8776 43.4646 39.8181 43.1728C39.1957 40.1178 36.442 37.8982 33.2687 37.8982C32.304 37.8981 31.3506 38.1061 30.4735 38.5078L30.4733 38.5079C30.3328 38.5719 30.1806 38.6062 30.0263 38.6089C29.872 38.6116 29.7187 38.5826 29.5761 38.5236C29.4335 38.4646 29.3045 38.377 29.1971 38.2661C29.0897 38.1552 29.0063 38.0234 28.9519 37.879C27.6082 34.3086 24.1131 31.9078 20.2545 31.9078C15.1345 31.9078 10.9711 36.0105 10.971 41.0498C10.9735 42.0915 11.157 43.1248 11.5134 44.1036L11.5135 44.1039C11.5738 44.2714 11.5937 44.4508 11.5713 44.6274C11.549 44.8041 11.4851 44.9729 11.3849 45.1201C11.2847 45.2673 11.1511 45.3886 10.995 45.4742C10.8388 45.5598 10.6647 45.6071 10.4867 45.6124L10.4863 45.6124C8.53023 45.6629 6.66968 46.4688 5.29485 47.8612L5.29456 47.8615C3.92758 49.2344 3.16093 51.0934 3.16279 53.0307ZM10.871 41.0501C10.871 35.954 15.0806 31.8078 20.2545 31.8078C24.1541 31.8078 27.6869 34.2339 29.0455 37.8438C29.095 37.9754 29.1711 38.0955 29.2689 38.1965C29.3668 38.2976 29.4843 38.3774 29.6143 38.4312C29.7443 38.4849 29.8839 38.5114 30.0246 38.5089C30.1652 38.5065 30.3038 38.4752 30.4319 38.4169C31.322 38.0092 32.2896 37.7981 33.2687 37.7982C36.4884 37.7982 39.2839 40.0501 39.9161 43.1528C39.9703 43.4188 40.1276 43.6524 40.3535 43.8028C40.5795 43.9531 40.8558 44.0079 41.122 43.9551C41.6785 43.8446 42.2445 43.7887 42.8119 43.7882C47.5078 43.7885 51.3282 47.5508 51.3282 52.1751C51.3282 56.7994 47.5078 60.5616 42.8118 60.5616H10.7116C6.494 60.5616 3.06279 57.1833 3.06279 53.0308C3.06091 51.067 3.83803 49.1826 5.2237 47.7909C6.61669 46.3802 8.50181 45.5636 10.4837 45.5124C10.6459 45.5076 10.8046 45.4645 10.9469 45.3865C11.0892 45.3085 11.2109 45.1979 11.3022 45.0638C11.3935 44.9297 11.4517 44.7758 11.4721 44.6149C11.4925 44.4539 11.4744 44.2904 11.4194 44.1378C11.0591 43.1481 10.8735 42.1033 10.871 41.0501ZM46.9593 42.573C51.4477 41.4207 55.1955 38.4307 57.4142 34.3255C57.4377 34.2821 57.461 34.2385 57.4841 34.1949C57.4378 34.2114 57.3913 34.2277 57.3447 34.2437C55.9361 34.7276 54.4071 34.9594 52.6852 34.9594C44.8993 34.9594 38.565 28.494 38.565 20.547C38.565 15.6884 41.1218 11.0509 45.0527 8.36049C45.0969 8.33022 45.1413 8.30019 45.1859 8.27041C45.1324 8.26614 45.0788 8.26208 45.0252 8.25822C44.2384 8.20157 43.45 8.18852 42.7094 8.18852C33.3057 8.18852 25.6551 16.02 25.6551 25.6462C25.6513 27.7307 26.015 29.7996 26.7294 31.7578C28.3682 32.8698 29.6881 34.3905 30.5586 36.1694C31.4342 35.8872 32.3486 35.7439 33.2686 35.7447C37.1261 35.7447 40.5182 38.2375 41.6783 41.7956C43.4402 41.6071 45.2207 41.8603 46.8592 42.5318C46.8923 42.5454 46.9253 42.5591 46.9583 42.573C46.9586 42.5731 46.9589 42.5733 46.9592 42.5734V42.573C46.9592 42.573 46.9593 42.573 46.9593 42.573ZM46.9663 42.4679C51.378 41.3259 55.0676 38.3959 57.2744 34.3731C55.8823 34.8374 54.3746 35.0594 52.6852 35.0594C44.8421 35.0594 38.465 28.5473 38.465 20.547C38.465 15.6969 40.9943 11.0679 44.8929 8.34932C44.1512 8.30021 43.4097 8.28852 42.7094 8.28852C33.3631 8.28852 25.7551 16.073 25.7551 25.6462V25.6464C25.7514 27.7084 26.1092 29.755 26.8124 31.6933C28.4294 32.7972 29.7367 34.2965 30.6102 36.0481C31.4707 35.78 32.3671 35.644 33.2687 35.6447C33.2687 35.6447 33.2686 35.6447 33.2686 35.6447M33.2687 35.6447C37.1415 35.6448 40.5509 38.1294 41.748 41.6879C43.5249 41.5112 45.3182 41.7791 46.9663 42.4679" fill="#64D370"/>
<path d="M54.4093 15.377C54.1369 15.377 53.8757 15.4852 53.6831 15.6778C53.4905 15.8704 53.3823 16.1316 53.3823 16.4039V18.0599L51.6533 17.4835C51.5249 17.4393 51.3891 17.421 51.2537 17.4296C51.1183 17.4382 50.9859 17.4736 50.8642 17.5337C50.7425 17.5938 50.634 17.6774 50.5448 17.7797C50.4556 17.882 50.3876 18.0009 50.3447 18.1297C50.3018 18.2584 50.2848 18.3944 50.2948 18.5297C50.3047 18.6651 50.3414 18.7971 50.4027 18.9182C50.4639 19.0393 50.5486 19.147 50.6518 19.2352C50.7549 19.3233 50.8746 19.3902 51.0037 19.4318L52.8091 20.0336L51.501 21.9957C51.4253 22.1079 51.3726 22.2339 51.3458 22.3665C51.319 22.4992 51.3187 22.6358 51.3448 22.7686C51.371 22.9013 51.4232 23.0276 51.4983 23.1401C51.5735 23.2527 51.6701 23.3493 51.7827 23.4243C51.8953 23.4994 52.0216 23.5515 52.1544 23.5776C52.2871 23.6037 52.4238 23.6033 52.5564 23.5764C52.689 23.5495 52.815 23.4967 52.9271 23.4209C53.0393 23.3452 53.1353 23.248 53.2098 23.135L54.4093 21.336L55.6087 23.1352C55.7605 23.3602 55.9951 23.516 56.2614 23.5685C56.5277 23.621 56.8039 23.5659 57.0298 23.4153C57.2556 23.2648 57.4126 23.0309 57.4665 22.7649C57.5204 22.4989 57.4669 22.2224 57.3175 21.9958L56.0095 20.0337L57.8148 19.432C58.0707 19.3439 58.2814 19.1583 58.4012 18.9157C58.5211 18.673 58.5403 18.3929 58.4547 18.1362C58.3691 17.8795 58.1856 17.6669 57.9442 17.5447C57.7027 17.4225 57.4228 17.4006 57.1653 17.4836L55.4362 18.0599V16.4039C55.4362 16.1316 55.328 15.8704 55.1354 15.6778C54.9428 15.4852 54.6816 15.377 54.4093 15.377Z" fill="#64D370"/>
<path fill-rule="evenodd" clip-rule="evenodd" d="M55.6086 23.1352L54.4092 21.336L53.2097 23.1351C53.1352 23.2481 53.0392 23.3452 52.927 23.4209C52.8149 23.4967 52.6889 23.5495 52.5563 23.5764C52.4237 23.6033 52.287 23.6037 52.1543 23.5776C52.0215 23.5515 51.8952 23.4994 51.7826 23.4243C51.67 23.3493 51.5734 23.2527 51.4982 23.1402C51.4231 23.0276 51.3709 22.9013 51.3447 22.7686C51.3186 22.6358 51.3189 22.4992 51.3457 22.3665C51.3725 22.2339 51.4252 22.1079 51.5009 21.9957L52.809 20.0336L51.0036 19.4318C50.8745 19.3902 50.7548 19.3234 50.6517 19.2352C50.5485 19.147 50.4638 19.0393 50.4026 18.9182C50.3413 18.7971 50.3046 18.6651 50.2947 18.5298C50.2847 18.3944 50.3017 18.2585 50.3446 18.1297C50.3875 18.001 50.4555 17.882 50.5447 17.7797C50.6339 17.6774 50.7424 17.5938 50.8641 17.5337C50.9858 17.4736 51.1182 17.4383 51.2536 17.4296C51.389 17.421 51.5248 17.4393 51.6532 17.4835L53.3822 18.0599V16.404C53.3822 16.1316 53.4904 15.8704 53.683 15.6778C53.8756 15.4852 54.1368 15.377 54.4092 15.377C54.6815 15.377 54.9427 15.4852 55.1353 15.6778C55.3279 15.8704 55.4361 16.1316 55.4361 16.404V18.0599L57.1652 17.4836C57.4227 17.4006 57.7026 17.4225 57.9441 17.5447C58.1855 17.6669 58.369 17.8795 58.4546 18.1362C58.5402 18.3929 58.521 18.6731 58.4011 18.9157C58.2813 19.1583 58.0706 19.3439 57.8147 19.432L56.0094 20.0338L57.3174 21.9958C57.4668 22.2224 57.5203 22.499 57.4664 22.765C57.4125 23.031 57.2555 23.2648 57.0297 23.4154C56.8039 23.5659 56.5276 23.621 56.2613 23.5685C55.995 23.516 55.7604 23.3602 55.6086 23.1352ZM56.1652 20.0872L57.4006 21.9404C57.5645 22.189 57.6236 22.4929 57.5644 22.7848C57.5053 23.0767 57.3329 23.3333 57.0851 23.4986C56.8373 23.6638 56.5342 23.7242 56.242 23.6666C55.9498 23.609 55.6923 23.438 55.5257 23.1911L54.4092 21.5163L53.2932 23.1901C53.2932 23.1902 53.2933 23.19 53.2932 23.1901C53.2115 23.314 53.106 23.4208 52.983 23.5038C52.86 23.5869 52.7217 23.6449 52.5762 23.6744C52.4306 23.7039 52.2807 23.7043 52.135 23.6757C51.9893 23.6471 51.8507 23.5899 51.7271 23.5076C51.6036 23.4252 51.4975 23.3192 51.4151 23.1957C51.3326 23.0722 51.2754 22.9336 51.2466 22.7879C51.2179 22.6422 51.2183 22.4923 51.2477 22.3467C51.2771 22.2013 51.3349 22.0631 51.4179 21.94C51.4179 21.9399 51.4178 21.9401 51.4179 21.94L52.6531 20.0871L50.9729 19.527C50.9728 19.527 50.9731 19.5271 50.9729 19.527C50.8314 19.4813 50.6998 19.4079 50.5867 19.3112C50.4735 19.2145 50.3806 19.0962 50.3133 18.9634C50.2461 18.8305 50.2058 18.6856 50.1949 18.5371C50.184 18.3886 50.2026 18.2394 50.2497 18.0981C50.2968 17.9568 50.3715 17.8263 50.4693 17.714C50.5672 17.6017 50.6863 17.51 50.8198 17.4441C50.9534 17.3781 51.0986 17.3393 51.2473 17.3298C51.3957 17.3204 51.5446 17.3404 51.6852 17.3888L53.2822 17.9211V16.404C53.2822 16.1051 53.401 15.8184 53.6123 15.6071C53.8236 15.3958 54.1103 15.277 54.4092 15.277C54.708 15.277 54.9947 15.3958 55.206 15.6071C55.4174 15.8184 55.5361 16.1051 55.5361 16.404V17.9211L57.1336 17.3888C57.4162 17.2976 57.7243 17.3214 57.9892 17.4555C58.2542 17.5896 58.4555 17.8229 58.5494 18.1046C58.6434 18.3863 58.6223 18.6937 58.4908 18.96C58.3593 19.2262 58.128 19.4298 57.8473 19.5265L56.1652 20.0872Z" fill="#64D370"/>
<path d="M4.09034 27.302L2.36126 26.7257C2.23295 26.6815 2.09715 26.6632 1.96172 26.6718C1.82628 26.6804 1.6939 26.7158 1.57222 26.7759C1.45055 26.836 1.34198 26.9196 1.25281 27.0219C1.16364 27.1242 1.09563 27.2431 1.05271 27.3719C1.00979 27.5006 0.992815 27.6366 1.00276 27.7719C1.01271 27.9073 1.04938 28.0393 1.11066 28.1604C1.17195 28.2815 1.25662 28.3892 1.35979 28.4774C1.46296 28.5655 1.58258 28.6324 1.71173 28.674L3.51706 29.2758L2.20902 31.2379C2.13335 31.35 2.0806 31.4761 2.0538 31.6087C2.027 31.7414 2.02668 31.878 2.05285 32.0107C2.07903 32.1435 2.13118 32.2698 2.20632 32.3823C2.28146 32.4949 2.3781 32.5914 2.49069 32.6665C2.60327 32.7416 2.72959 32.7937 2.86237 32.8198C2.99515 32.8458 3.13177 32.8454 3.26439 32.8186C3.39701 32.7917 3.52302 32.7388 3.63515 32.6631C3.74729 32.5874 3.84335 32.4902 3.91782 32.3772L5.11727 30.5782L6.31672 32.3774C6.39118 32.4903 6.48725 32.5875 6.59938 32.6632C6.71152 32.739 6.83752 32.7918 6.97014 32.8187C7.10276 32.8456 7.23939 32.846 7.37217 32.8199C7.50495 32.7938 7.63126 32.7417 7.74385 32.6666C7.85643 32.5916 7.95307 32.495 8.02821 32.3825C8.10335 32.2699 8.15551 32.1436 8.18168 32.0109C8.20786 31.8781 8.20754 31.7415 8.18074 31.6088C8.15394 31.4762 8.10118 31.3502 8.02552 31.238L6.71747 29.2759L8.5228 28.6741C8.77867 28.586 8.98942 28.4005 9.10924 28.1579C9.22906 27.9152 9.24826 27.6351 9.16268 27.3784C9.0771 27.1217 8.89364 26.9091 8.65219 26.7869C8.41074 26.6647 8.13082 26.6428 7.87328 26.7258L6.14419 27.302V25.6461C6.14419 25.3738 6.036 25.1126 5.84341 24.92C5.65083 24.7274 5.38963 24.6192 5.11727 24.6192C4.84491 24.6192 4.58371 24.7274 4.39112 24.92C4.19854 25.1126 4.09034 25.3738 4.09034 25.6461V27.302Z" fill="#64D370"/>
<path fill-rule="evenodd" clip-rule="evenodd" d="M8.52271 28.6741L6.71737 29.2759L8.02542 31.2379C8.10109 31.3501 8.15384 31.4762 8.18064 31.6088C8.20744 31.7414 8.20776 31.8781 8.18158 32.0108C8.15541 32.1436 8.10325 32.2699 8.02812 32.3824C7.95298 32.495 7.85634 32.5915 7.74375 32.6666C7.63116 32.7417 7.50485 32.7938 7.37207 32.8198C7.23929 32.8459 7.10267 32.8455 6.97005 32.8186C6.83742 32.7918 6.71142 32.7389 6.59929 32.6632C6.48715 32.5875 6.39109 32.4903 6.31662 32.3773L5.11717 30.5782L3.91772 32.3772C3.84326 32.4902 3.74719 32.5873 3.63506 32.6631C3.52292 32.7388 3.39692 32.7916 3.2643 32.8185C3.13167 32.8454 2.99505 32.8458 2.86227 32.8197C2.72949 32.7936 2.60318 32.7415 2.49059 32.6665C2.378 32.5914 2.28136 32.4948 2.20623 32.3823C2.13109 32.2697 2.07893 32.1435 2.05276 32.0107C2.02658 31.8779 2.0269 31.7413 2.0537 31.6087C2.0805 31.476 2.13325 31.35 2.20892 31.2378L3.51697 29.2758L1.71163 28.674C1.58248 28.6323 1.46286 28.5655 1.35969 28.4773C1.25652 28.3892 1.17185 28.2814 1.11057 28.1603C1.04929 28.0393 1.01261 27.9072 1.00266 27.7719C0.992718 27.6365 1.00969 27.5006 1.05261 27.3718C1.09553 27.2431 1.16354 27.1241 1.25271 27.0218C1.34189 26.9195 1.45045 26.8359 1.57213 26.7758C1.69381 26.7158 1.82619 26.6804 1.96162 26.6718C2.09705 26.6631 2.23285 26.6815 2.36116 26.7256L4.09025 27.302V25.6461C4.09025 25.3737 4.19844 25.1125 4.39103 24.9199C4.58361 24.7274 4.84481 24.6192 5.11717 24.6192C5.38953 24.6192 5.65073 24.7274 5.84332 24.9199C6.0359 25.1125 6.14409 25.3737 6.14409 25.6461V27.302L7.87318 26.7258C8.13073 26.6427 8.41065 26.6647 8.65209 26.7869C8.89354 26.9091 9.077 27.1216 9.16258 27.3783C9.24817 27.6351 9.22896 27.9152 9.10914 28.1578C8.98932 28.4005 8.77857 28.586 8.52271 28.6741ZM6.24409 27.1633V25.6461C6.24409 25.3472 6.12537 25.0606 5.91403 24.8492C5.70269 24.6379 5.41605 24.5192 5.11717 24.5192C4.81829 24.5192 4.53165 24.6379 4.32032 24.8492C4.10898 25.0606 3.99025 25.3472 3.99025 25.6461V27.1633L2.39324 26.6309C2.25258 26.5826 2.10372 26.5625 1.95527 26.572C1.80665 26.5814 1.66138 26.6202 1.52785 26.6862C1.39432 26.7521 1.27519 26.8439 1.17733 26.9561C1.07948 27.0684 1.00485 27.1989 0.957747 27.3402C0.910648 27.4815 0.892018 27.6307 0.902934 27.7792C0.91385 27.9277 0.954095 28.0726 1.02134 28.2055C1.08859 28.3384 1.18151 28.4566 1.29472 28.5533C1.40782 28.65 1.53893 28.7233 1.68049 28.769C1.68034 28.769 1.68064 28.7691 1.68049 28.769L3.36114 29.3292L2.12602 31.1819C2.12607 31.1818 2.12597 31.182 2.12602 31.1819C2.04306 31.305 1.98508 31.4434 1.95568 31.5889C1.92627 31.7344 1.92592 31.8844 1.95464 32.0301C1.98337 32.1757 2.0406 32.3143 2.12306 32.4378C2.20551 32.5613 2.31157 32.6673 2.43511 32.7497C2.55866 32.8321 2.69728 32.8892 2.84299 32.9178C2.9887 32.9465 3.13863 32.946 3.28416 32.9165C3.4297 32.887 3.56797 32.8291 3.69103 32.7459C3.814 32.6629 3.91936 32.5564 4.00106 32.4325C4.001 32.4326 4.00111 32.4324 4.00106 32.4325L5.11717 30.7584L6.23312 32.4324C6.23307 32.4323 6.23317 32.4324 6.23312 32.4324C6.31482 32.5562 6.42033 32.663 6.54332 32.7461C6.66637 32.8292 6.80464 32.8872 6.95018 32.9167C7.09571 32.9462 7.24565 32.9466 7.39135 32.918C7.53706 32.8893 7.67568 32.8322 7.79923 32.7498C7.92278 32.6674 8.02883 32.5614 8.11128 32.4379C8.19374 32.3144 8.25097 32.1759 8.2797 32.0302C8.30842 31.8845 8.30807 31.7346 8.27866 31.589C8.24927 31.4435 8.19143 31.3053 8.10848 31.1823C8.10853 31.1823 8.10843 31.1822 8.10848 31.1823L6.8732 29.3293L8.55433 28.769C8.83511 28.6723 9.06732 28.4684 9.19881 28.2021C9.33029 27.9358 9.35137 27.6284 9.25745 27.3467C9.16353 27.065 8.96221 26.8317 8.69725 26.6976C8.43229 26.5635 8.12511 26.5395 7.84248 26.6306L6.24409 27.1633Z" fill="#64D370"/>
<path d="M8.65574 11.0966C8.88234 11.2477 9.15968 11.3026 9.42675 11.2492C9.69382 11.1958 9.92874 11.0385 10.0798 10.8119L11.2793 9.01275L12.4787 10.8119C12.6305 11.0369 12.8652 11.1927 13.1314 11.2452C13.3977 11.2977 13.674 11.2427 13.8998 11.0921C14.1256 10.9415 14.2826 10.7077 14.3365 10.4417C14.3905 10.1757 14.3369 9.89917 14.1875 9.67255L12.8795 7.71049L14.6848 7.10871C14.9407 7.02061 15.1514 6.83507 15.2712 6.59244C15.3911 6.3498 15.4103 6.06967 15.3247 5.81295C15.2391 5.55624 15.0556 5.34367 14.8142 5.22148C14.5727 5.09928 14.2928 5.07732 14.0353 5.16038L12.3062 5.73661V4.0807C12.3062 3.80834 12.198 3.54714 12.0054 3.35455C11.8128 3.16197 11.5516 3.05377 11.2793 3.05377C11.0069 3.05377 10.7457 3.16197 10.5531 3.35455C10.3605 3.54714 10.2524 3.80834 10.2524 4.0807V5.73661L8.52327 5.16025C8.26572 5.07719 7.9858 5.09915 7.74435 5.22135C7.5029 5.34355 7.31945 5.55611 7.23386 5.81283C7.14828 6.06955 7.16748 6.34967 7.2873 6.59231C7.40712 6.83494 7.61787 7.02048 7.87374 7.10858L9.67907 7.71036L8.37103 9.67255C8.21994 9.89916 8.16506 10.1765 8.21845 10.4436C8.27185 10.7106 8.42914 10.9455 8.65574 11.0966Z" fill="#64D370"/>
<path fill-rule="evenodd" clip-rule="evenodd" d="M10.1632 10.8674C9.99737 11.1161 9.73957 11.2887 9.4465 11.3473C9.15343 11.4059 8.84908 11.3457 8.60041 11.1799L8.65589 11.0967C8.88249 11.2478 9.15983 11.3026 9.4269 11.2492C9.69396 11.1958 9.92888 11.0385 10.08 10.812L11.2794 9.01278L12.4789 10.812C12.6306 11.037 12.8653 11.1927 13.1316 11.2452C13.3979 11.2977 13.6741 11.2427 13.8999 11.0921C14.1257 10.9416 14.2828 10.7077 14.3367 10.4417C14.3906 10.1757 14.337 9.89919 14.1877 9.67258L12.8796 7.71051L14.685 7.10873C14.9408 7.02063 15.1516 6.8351 15.2714 6.59246C15.3912 6.34982 15.4104 6.0697 15.3248 5.81298C15.2392 5.55626 15.0558 5.3437 14.8143 5.2215C14.5729 5.0993 14.293 5.07734 14.0354 5.1604L12.3063 5.73664V4.08072C12.3063 3.80836 12.1982 3.54716 12.0056 3.35458C11.813 3.16199 11.5518 3.0538 11.2794 3.0538C11.0071 3.0538 10.7459 3.16199 10.5533 3.35458C10.3607 3.54716 10.2525 3.80836 10.2525 4.08072V5.73664L8.52342 5.16027C8.26587 5.07722 7.98595 5.09917 7.7445 5.22137C7.50305 5.34357 7.3196 5.55613 7.23401 5.81285C7.14843 6.06957 7.16763 6.34969 7.28745 6.59233C7.40727 6.83497 7.61802 7.0205 7.87389 7.10861L9.67922 7.71038L8.37117 9.67258C8.22009 9.89918 8.16521 10.1765 8.2186 10.4436C8.27199 10.7107 8.42929 10.9456 8.65589 11.0967L8.60041 11.1799C8.35175 11.0141 8.17913 10.7563 8.12054 10.4632C8.06195 10.1701 8.12217 9.86578 8.28797 9.61711C8.28797 9.61711 8.28797 9.61711 8.28797 9.61711L9.52339 7.76385L7.84226 7.20347C7.56148 7.10679 7.32928 6.90287 7.19779 6.63661C7.0663 6.37034 7.04523 6.06294 7.13914 5.78122C7.23306 5.49951 7.43438 5.26625 7.69934 5.13215C7.9643 4.99805 8.27148 4.97396 8.55411 5.0651L10.1525 5.59789V4.08072C10.1525 3.78184 10.2712 3.4952 10.4826 3.28387C10.6939 3.07253 10.9805 2.9538 11.2794 2.9538C11.5783 2.9538 11.8649 3.07253 12.0763 3.28387C12.2876 3.4952 12.4063 3.78184 12.4063 4.08072V5.5979L14.0038 5.06553C14.2864 4.97439 14.5945 4.99818 14.8595 5.13228C15.1245 5.26637 15.3258 5.49963 15.4197 5.78135C15.5136 6.06307 15.4925 6.37047 15.3611 6.63674C15.2296 6.903 14.9983 7.1066 14.7175 7.20329L13.0355 7.76398L14.2709 9.61711C14.4348 9.86579 14.4939 10.1697 14.4347 10.4616C14.3755 10.7535 14.2032 11.0101 13.9554 11.1753C13.7076 11.3406 13.4045 11.401 13.1122 11.3433C12.82 11.2857 12.5625 11.1148 12.396 10.8679L11.2794 9.19306L10.1632 10.8674Z" fill="#64D370"/>
<path d="M59.545 7.16164C60.1121 7.16164 60.5719 6.70187 60.5719 6.13471C60.5719 5.56756 60.1121 5.10779 59.545 5.10779C58.9778 5.10779 58.5181 5.56756 58.5181 6.13471C58.5181 6.70187 58.9778 7.16164 59.545 7.16164Z" fill="#64D370"/>
<path fill-rule="evenodd" clip-rule="evenodd" d="M60.6718 6.13468C60.6718 6.75706 60.1673 7.2616 59.5449 7.2616C58.9225 7.2616 58.418 6.75706 58.418 6.13468C58.418 5.51229 58.9225 5.00775 59.5449 5.00775C60.1673 5.00775 60.6718 5.51229 60.6718 6.13468ZM60.5718 6.13468C60.5718 6.70183 60.112 7.1616 59.5449 7.1616C58.9777 7.1616 58.518 6.70183 58.518 6.13468C58.518 5.56752 58.9777 5.10775 59.5449 5.10775C60.112 5.10775 60.5718 5.56752 60.5718 6.13468Z" fill="#64D370"/>
<path d="M17.439 22.5655C18.0062 22.5655 18.466 22.1057 18.466 21.5386C18.466 20.9714 18.0062 20.5117 17.439 20.5117C16.8719 20.5117 16.4121 20.9714 16.4121 21.5386C16.4121 22.1057 16.8719 22.5655 17.439 22.5655Z" fill="#64D370"/>
<path fill-rule="evenodd" clip-rule="evenodd" d="M18.5661 21.5386C18.5661 22.161 18.0616 22.6655 17.4392 22.6655C16.8168 22.6655 16.3123 22.161 16.3123 21.5386C16.3123 20.9162 16.8168 20.4117 17.4392 20.4117C18.0616 20.4117 18.5661 20.9162 18.5661 21.5386ZM18.4661 21.5386C18.4661 22.1058 18.0063 22.5655 17.4392 22.5655C16.872 22.5655 16.4123 22.1058 16.4123 21.5386C16.4123 20.9715 16.872 20.5117 17.4392 20.5117C18.0063 20.5117 18.4661 20.9715 18.4661 21.5386Z" fill="#64D370"/>
<path d="M32.8441 3.05385C33.4112 3.05385 33.871 2.59408 33.871 2.02692C33.871 1.45977 33.4112 1 32.8441 1C32.2769 1 31.8171 1.45977 31.8171 2.02692C31.8171 2.59408 32.2769 3.05385 32.8441 3.05385Z" fill="#64D370"/>
<path fill-rule="evenodd" clip-rule="evenodd" d="M33.9711 2.02695C33.9711 2.64933 33.4666 3.15387 32.8442 3.15387C32.2218 3.15387 31.7173 2.64933 31.7173 2.02695C31.7173 1.40457 32.2218 0.900024 32.8442 0.900024C33.4666 0.900024 33.9711 1.40457 33.9711 2.02695ZM33.8711 2.02695C33.8711 2.5941 33.4114 3.05387 32.8442 3.05387C32.2771 3.05387 31.8173 2.5941 31.8173 2.02695C31.8173 1.45979 32.2771 1.00002 32.8442 1.00002C33.4114 1.00002 33.8711 1.45979 33.8711 2.02695Z" fill="#64D370"/>
<path d="M61.5987 43.1038C62.1659 43.1038 62.6256 42.644 62.6256 42.0769C62.6256 41.5097 62.1659 41.0499 61.5987 41.0499C61.0315 41.0499 60.5718 41.5097 60.5718 42.0769C60.5718 42.644 61.0315 43.1038 61.5987 43.1038Z" fill="#64D370"/>
<path fill-rule="evenodd" clip-rule="evenodd" d="M62.7255 42.0769C62.7255 42.6993 62.221 43.2038 61.5986 43.2038C60.9762 43.2038 60.4717 42.6993 60.4717 42.0769C60.4717 41.4545 60.9762 40.95 61.5986 40.95C62.221 40.95 62.7255 41.4545 62.7255 42.0769ZM62.6255 42.0769C62.6255 42.644 62.1658 43.1038 61.5986 43.1038C61.0314 43.1038 60.5717 42.644 60.5717 42.0769C60.5717 41.5097 61.0314 41.05 61.5986 41.05C62.1658 41.05 62.6255 41.5097 62.6255 42.0769Z" fill="#64D370"/>
</svg>
