<svg width="40" height="40" viewBox="0 0 40 40" fill="none" xmlns="http://www.w3.org/2000/svg">
<rect width="40" height="40" fill="#E5E5E5"/>
<g clip-path="url(#clip0_0_1)">
<rect width="1920" height="4281" transform="translate(-65 -356)" fill="#F5FAFF"/>
<g filter="url(#filter0_d_0_1)">
<circle cx="20" cy="19" r="35" fill="#F5FAFF"/>
</g>
<path d="M31.0364 14.9051C30.3781 14.9051 29.8843 15.4288 29.8843 16.0573C29.8843 16.6708 30.3781 17.2094 31.0364 17.2094C31.6649 17.2094 32.1886 16.7007 32.1886 16.0573C32.1886 15.4138 31.6649 14.9051 31.0364 14.9051Z" fill="#020202"/>
<path d="M7.27765 11.1025C6.67912 11.1025 6.23022 11.5814 6.23022 12.135C6.23022 12.6886 6.67912 13.1675 7.27765 13.1675C7.84625 13.1675 8.31011 12.7036 8.31011 12.135C8.31011 11.5664 7.84625 11.1025 7.27765 11.1025Z" fill="#020202"/>
<path d="M39.3361 23.2636L39.3367 23.2669C39.3707 23.4713 39.3269 23.6961 39.2041 23.9055C39.0466 24.1633 38.8492 24.2436 38.4422 24.4094L38.4265 24.4158L38.4265 24.4158L38.4224 24.4176C33.6772 26.4512 27.6511 26.0012 22.544 24.9857C17.7873 24.0286 14.0987 22.6195 13.5927 22.4263C13.5716 22.4182 13.556 22.4122 13.5461 22.4085C12.0897 21.8491 10.6824 21.6801 9.34088 21.9134C7.99895 22.1468 6.73854 22.78 5.57203 23.8006C4.28527 24.919 3.44618 26.2326 3.03693 26.9299L2.96145 27.0585L3.03871 27.186C4.61982 29.7956 6.8781 31.1933 9.76715 31.3014L9.76844 31.3015C10.958 31.3399 12.0408 31.152 12.8266 30.9536C13.22 30.8543 13.5406 30.7519 13.7649 30.673C13.877 30.6335 13.9655 30.5998 14.0273 30.575C14.0581 30.5627 14.083 30.5523 14.1013 30.5443C14.1102 30.5404 14.1189 30.5365 14.1265 30.5329C14.129 30.5317 14.1324 30.5301 14.1362 30.5281C14.6577 30.3029 15.2616 30.6283 15.3664 31.1875L15.3666 31.1882C15.8985 33.9805 15.5464 36.0591 14.3745 37.4433C13.042 39.0025 11.1192 39.0763 10.8239 39.0763C10.6482 39.0763 10.4971 39.0305 10.3526 38.9464C10.2011 38.8554 8.31284 37.7043 6.24551 35.6943C4.16903 33.6753 1.93094 30.8082 1.07132 27.2963C0.0717207 23.2096 0.803701 18.5724 3.93219 14.3519L3.93262 14.3513C4.25753 13.9104 4.90073 13.8705 5.29031 14.2601C5.60569 14.5755 5.64222 15.0652 5.37106 15.4307L5.37042 15.4315C3.08998 18.5329 2.49409 21.564 2.47882 23.8077L2.47406 24.5077L2.92117 23.9691C4.53919 22.0201 6.38215 20.8221 8.30405 20.3044C10.2256 19.7868 12.2426 19.9447 14.2175 20.7347C14.3004 20.7678 18.1018 22.255 22.9705 23.2167L23.4368 23.3088L23.2485 22.8724C22.1088 20.2304 21.61 17.599 21.9479 15.1955C22.2849 12.7982 23.456 10.6113 25.6878 8.84781L26.0802 8.53774L25.5967 8.40995C23.4696 7.8478 21.1816 7.71243 18.9605 7.87862C17.1035 8.01451 14.9376 8.40708 13.1868 9.09218L13.1859 9.09254C12.4474 9.38485 11.7438 9.76805 10.9115 10.3129L10.9115 10.3129L10.9097 10.314C10.8804 10.3336 10.8524 10.3505 10.82 10.37C10.8091 10.3766 10.7977 10.3834 10.7856 10.3908C10.7432 10.4166 10.6934 10.4478 10.645 10.4857C10.2983 10.7244 9.823 10.6789 9.51934 10.3752L9.51936 10.3752L9.51676 10.3727C9.11012 9.97763 9.17632 9.3117 9.64652 8.99387C9.64669 8.99376 9.64686 8.99364 9.64703 8.99353L9.91383 8.81566C9.91404 8.81553 9.91424 8.81539 9.91445 8.81526C11.5052 7.76955 12.8834 7.1384 15.1719 6.6364L15.5004 6.56434L15.3368 6.27056C14.6492 5.0361 13.4574 3.63758 10.6697 3.0061L10.6697 3.00602L10.6635 3.00478C9.78706 2.8295 9.66863 1.58967 10.5626 1.27125C14.3177 -0.0294988 18.1148 -0.0591411 21.2726 2.19645L21.2727 2.19656C23.0538 3.46666 24.1384 5.14945 24.7268 6.2968L24.7823 6.40506L24.9017 6.42817C33.4306 8.07796 38.015 14.6093 39.3361 23.2636ZM17.257 6.09594L17.3352 6.25963L17.515 6.23608C18.7592 6.07315 20.3291 5.96953 22.0463 6.07315L22.5769 6.10517L22.2631 5.67605C20.9254 3.84633 18.5298 1.88449 14.5743 2.2077L13.8746 2.26488L14.4529 2.66283C16.031 3.74862 16.7856 5.10899 17.257 6.09594ZM13.7966 32.8737L13.7743 32.5714L13.4817 32.6508C11.0983 33.2982 8.55274 33.3088 6.28021 32.3765L5.99378 32.7684C7.96067 35.1136 10.1972 36.7002 10.9864 37.2162L11.0659 37.2682L11.1598 37.2543C11.5888 37.1907 12.4242 36.9818 13.0353 36.2551L13.0367 36.2534C13.665 35.4928 13.9033 34.3227 13.7966 32.8737ZM25.5669 23.5535L25.6269 23.6655L25.7528 23.683C29.4322 24.1936 33.7327 24.2901 37.2637 22.9355L37.4585 22.8608L37.4199 22.6558C36.3341 16.8955 33.6391 11.8683 28.3018 9.38267L28.1819 9.32684L28.0683 9.39452C25.9162 10.6766 24.5203 12.3398 23.9456 14.3742C22.9441 17.9025 24.5759 21.7067 25.5669 23.5535Z" fill="#020202" stroke="#F5FAFF" stroke-width="0.5"/>
</g>
<defs>
<filter id="filter0_d_0_1" x="-45" y="-46" width="130" height="130" filterUnits="userSpaceOnUse" color-interpolation-filters="sRGB">
<feFlood flood-opacity="0" result="BackgroundImageFix"/>
<feColorMatrix in="SourceAlpha" type="matrix" values="0 0 0 0 0 0 0 0 0 0 0 0 0 0 0 0 0 0 127 0" result="hardAlpha"/>
<feOffset/>
<feGaussianBlur stdDeviation="15"/>
<feColorMatrix type="matrix" values="0 0 0 0 0.337255 0 0 0 0 0.337255 0 0 0 0 0.337255 0 0 0 0.25 0"/>
<feBlend mode="normal" in2="BackgroundImageFix" result="effect1_dropShadow_0_1"/>
<feBlend mode="normal" in="SourceGraphic" in2="effect1_dropShadow_0_1" result="shape"/>
</filter>
<clipPath id="clip0_0_1">
<rect width="1920" height="4281" fill="white" transform="translate(-65 -356)"/>
</clipPath>
</defs>
</svg>
