<svg width="54" height="45" viewBox="0 0 54 45" fill="none" xmlns="http://www.w3.org/2000/svg">
<rect width="54" height="45" fill="#E5E5E5"/>
<g clip-path="url(#clip0_0_1)">
<rect width="1920" height="4281" transform="translate(-58 -713)" fill="#F5FAFF"/>
<g filter="url(#filter0_d_0_1)">
<circle cx="27" cy="22" r="35" fill="#F5FAFF"/>
</g>
<path d="M48.5952 20.4773L48.536 20.1503L48.4049 20.4557C48.0778 21.2177 47.6623 21.9456 47.1627 22.6218C46.8965 22.9819 46.3887 23.0583 46.0285 22.792L45.969 22.8724L46.0285 22.7919C45.6682 22.5258 45.592 22.018 45.8582 21.6577C47.3643 19.6197 47.9715 17.0321 47.5236 14.5581C47.1119 12.2845 45.7827 10.4831 43.5642 9.16429C41.3491 7.84745 38.2474 7.01116 34.2822 6.65772C26.9528 6.00452 19.0004 7.23104 15.9235 7.78811C8.70215 9.09555 3.891 16.0341 5.19843 23.2554C6.50584 30.4767 13.4443 35.2879 20.6656 33.9804C24.0869 33.361 26.5634 31.7586 29.1668 30.0742L29.1729 30.0702C32.1813 28.1238 35.2784 26.1205 40.1129 25.2453C40.3945 25.1943 40.6763 25.1295 40.951 25.0528L40.9241 24.9565L40.951 25.0528C41.3819 24.9324 41.8298 25.1843 41.9503 25.6155C42.0708 26.0469 41.8189 26.4943 41.3875 26.6148C41.0645 26.705 40.7329 26.7812 40.4018 26.8411C35.8853 27.6589 32.9152 29.5806 30.0571 31.4299L30.054 31.4319C27.289 33.221 24.6932 34.8994 20.9546 35.5763C15.4089 36.5804 10.0119 34.3673 6.68797 30.272L6.51326 30.359C8.18561 37.1105 14.8619 41.5034 21.8002 40.2472C25.2215 39.6278 27.698 38.0254 30.3014 36.341L30.3075 36.337C33.3159 34.3905 36.413 32.3873 41.2475 31.512C46.2372 30.6086 49.5615 25.8145 48.6581 20.8247L48.5952 20.4773ZM34.4261 5.04211C38.3367 5.39066 41.5232 6.21919 43.902 7.49959C46.842 9.08208 48.5927 11.3594 49.1195 14.2691L50.2541 20.5358C51.3168 26.4052 47.406 32.0453 41.5365 33.108C37.0199 33.9257 34.0499 35.8474 31.1917 37.6967L31.1886 37.6988C28.4236 39.4878 25.8279 41.1663 22.0892 41.8432C13.988 43.3099 6.20376 37.9123 4.73702 29.811L3.60243 23.5443C2.1357 15.4431 7.53333 7.65877 15.6345 6.19204C18.7801 5.62254 26.9037 4.37163 34.4261 5.04211Z" fill="#020202" stroke="#F5FAFF" stroke-width="0.2"/>
<path d="M44.1229 23.4464L44.1229 23.4464L44.1237 23.4458C44.4883 23.186 44.9948 23.2711 45.2547 23.6359C45.5123 23.9974 45.4309 24.4982 45.0743 24.7599L45.0741 24.7601C44.9708 24.8363 44.8557 24.8844 44.7375 24.9058C44.4445 24.9588 44.1335 24.848 43.9431 24.5938C43.6747 24.2354 43.7477 23.7271 44.1062 23.4586L44.1063 23.4585C44.1124 23.454 44.1185 23.4495 44.1229 23.4464Z" fill="#020202" stroke="#F5FAFF" stroke-width="0.2"/>
<path d="M14.0706 18.0155C13.6706 15.8062 15.3278 13.6331 17.7887 13.1875C20.2497 12.742 22.5634 14.1961 22.9634 16.4055C23.3634 18.6148 21.7064 20.7879 19.2454 21.2334C16.7845 21.679 14.4707 20.2249 14.0706 18.0155ZM15.6666 17.7265C15.9116 19.0796 17.4006 19.919 18.9564 19.6373C20.5122 19.3557 21.6124 18.0474 21.3674 16.6943C21.1225 15.3412 19.6334 14.5018 18.0776 14.7834C16.5218 15.0651 15.4216 16.3735 15.6666 17.7265Z" fill="#020202" stroke="#F5FAFF" stroke-width="0.2"/>
</g>
<defs>
<filter id="filter0_d_0_1" x="-38" y="-43" width="130" height="130" filterUnits="userSpaceOnUse" color-interpolation-filters="sRGB">
<feFlood flood-opacity="0" result="BackgroundImageFix"/>
<feColorMatrix in="SourceAlpha" type="matrix" values="0 0 0 0 0 0 0 0 0 0 0 0 0 0 0 0 0 0 127 0" result="hardAlpha"/>
<feOffset/>
<feGaussianBlur stdDeviation="15"/>
<feColorMatrix type="matrix" values="0 0 0 0 0.337255 0 0 0 0 0.337255 0 0 0 0 0.337255 0 0 0 0.25 0"/>
<feBlend mode="normal" in2="BackgroundImageFix" result="effect1_dropShadow_0_1"/>
<feBlend mode="normal" in="SourceGraphic" in2="effect1_dropShadow_0_1" result="shape"/>
</filter>
<clipPath id="clip0_0_1">
<rect width="1920" height="4281" fill="white" transform="translate(-58 -713)"/>
</clipPath>
</defs>
</svg>
