<svg width="63" height="63" viewBox="0 0 63 63" fill="none" xmlns="http://www.w3.org/2000/svg">
<path d="M53.4319 52.175V52.1751C53.4319 57.9601 48.6673 62.6655 42.8117 62.6655H10.7114C5.33438 62.6655 0.958797 58.344 0.958797 53.0308M53.4319 52.175L48.6852 8.75895M53.4319 52.175C53.4292 50.5827 53.0618 49.0121 52.3581 47.5838C51.6675 46.1821 50.671 44.9539 49.4426 43.9896M53.4319 52.175L49.3879 44.0102C49.4061 44.0034 49.4244 43.9965 49.4426 43.9896M0.958797 53.0308H1.0088L0.958797 53.0309C0.958797 53.0308 0.958797 53.0308 0.958797 53.0308ZM0.958797 53.0308C0.955636 50.5131 1.95116 48.097 3.72702 46.3123C5.16741 44.8513 7.03196 43.8826 9.05454 43.5436C8.8643 42.7261 8.76795 41.8895 8.7674 41.0501C8.7674 34.7932 13.9209 29.7039 20.2548 29.7039C21.5705 29.7043 22.8761 29.9305 24.1149 30.3725C23.7391 28.8253 23.5498 27.2386 23.5511 25.6462M23.5511 25.6462L23.6011 25.6462M23.5511 25.6462C23.5511 25.6462 23.5511 25.6462 23.5511 25.6462H23.6011M23.5511 25.6462C23.5511 14.8609 32.1444 6.08464 42.7092 6.08464C44.5825 6.08464 46.7581 6.16595 48.65 6.77301C48.8627 6.84117 49.049 6.9738 49.183 7.15253C49.317 7.33126 49.3922 7.54725 49.398 7.77058C49.4038 7.9939 49.34 8.21351 49.2155 8.39897C49.0909 8.58444 48.9118 8.72658 48.7029 8.80571M23.6011 25.6462C23.5998 27.2456 23.7912 28.8394 24.1713 30.3928L48.6347 6.82063C46.7509 6.21616 44.5822 6.13464 42.7092 6.13464C32.173 6.13464 23.6011 14.8875 23.6011 25.6462ZM48.7029 8.80571L48.6852 8.75895M48.7029 8.80571C48.7029 8.8057 48.7029 8.8057 48.7029 8.80569L48.6852 8.75895M48.7029 8.80571C43.9732 10.6013 40.6687 15.4299 40.6687 20.547C40.6687 27.3351 46.0603 32.8555 52.685 32.8555C55.1651 32.8555 57.155 32.3037 58.9512 31.1208C59.139 30.9971 59.3608 30.9354 59.5855 30.9441C59.8102 30.9529 60.0265 31.0318 60.2041 31.1698C60.3817 31.3077 60.5116 31.4978 60.5757 31.7133C60.6398 31.9289 60.6348 32.1591 60.5614 32.3717C58.6796 37.822 54.6098 42.0285 49.4426 43.9896M48.6852 8.75895C43.9358 10.562 40.6187 15.4094 40.6187 20.547C40.6187 27.3615 46.0316 32.9055 52.685 32.9055C55.1734 32.9055 57.1732 32.3516 58.9787 31.1626C59.1577 31.0446 59.3693 30.9857 59.5835 30.9941C59.7978 31.0025 60.0041 31.0777 60.1734 31.2092C60.3428 31.3408 60.4667 31.522 60.5278 31.7276C60.5889 31.9331 60.5841 32.1527 60.5142 32.3553C58.6336 37.802 54.5629 42.0025 49.3965 43.9535C49.4119 43.9655 49.4273 43.9775 49.4426 43.9896M24.1291 30.4308C22.8865 29.9833 21.5758 29.7543 20.2548 29.7539C13.9479 29.7539 8.8174 34.8214 8.8174 41.0501C8.81795 41.8868 8.91411 42.7207 9.10398 43.5355L24.1291 30.4308ZM5.25898 47.8262L5.25913 47.826C6.64304 46.4245 8.51587 45.6132 10.4849 45.5624L10.4851 45.5624C10.6551 45.5574 10.8216 45.5121 10.9708 45.4303C11.12 45.3485 11.2477 45.2326 11.3434 45.0919C11.4392 44.9513 11.5002 44.7899 11.5216 44.6211C11.5429 44.4523 11.524 44.2809 11.4663 44.1208L11.4662 44.1207C11.1079 43.1364 10.9234 42.0974 10.9209 41.0499C10.9209 35.9822 15.1074 31.8577 20.2544 31.8577C24.1335 31.8577 27.6474 34.2712 28.9986 37.8614C29.0505 37.9994 29.1302 38.1253 29.2329 38.2313C29.3355 38.3372 29.4587 38.421 29.5951 38.4774C29.7314 38.5337 29.8778 38.5615 30.0253 38.5589C30.1728 38.5563 30.3181 38.5235 30.4524 38.4624L30.4525 38.4623C31.3362 38.0576 32.2967 37.8481 33.2686 37.8482C36.4651 37.8482 39.2397 40.0839 39.867 43.1628C39.9238 43.4417 40.0887 43.6867 40.3257 43.8444C40.5627 44.002 40.8524 44.0595 41.1316 44.0041L41.1219 43.9551L41.1316 44.0041C41.6849 43.8943 42.2477 43.8387 42.8118 43.8382C47.4808 43.8385 51.2781 47.5791 51.2781 52.1751C51.2781 56.771 47.4808 60.5116 42.8117 60.5116H10.7114C6.52073 60.5116 3.11264 57.1549 3.11264 53.0308C3.11077 51.0801 3.88266 49.2084 5.25898 47.8262ZM45.0388 8.30932C41.0865 11.0073 38.5148 15.6653 38.5148 20.547C38.5148 28.5206 44.8706 35.0094 52.685 35.0094C54.4191 35.0094 55.9595 34.7749 57.3793 34.2846C55.1707 38.3819 51.4361 41.3673 46.9623 42.5205C45.3054 41.825 43.5003 41.5572 41.7131 41.7417C40.5344 38.1833 37.1336 35.6947 33.2685 35.6947C32.3577 35.6939 31.4523 35.8335 30.5843 36.1086C29.7122 34.3434 28.3986 32.8335 26.7707 31.7255C26.062 29.7773 25.7012 27.7195 25.705 25.6463V25.6462C25.705 16.0464 33.3343 8.23849 42.7092 8.23849C43.4549 8.23849 44.248 8.25173 45.0388 8.30932Z" fill="#64D370" stroke="#64D370" stroke-width="0.1"/>
<path d="M53.2513 23.1626L54.409 21.4261L55.5669 23.1629L55.567 23.1631C55.7262 23.3991 55.9723 23.5625 56.2515 23.6175C56.5308 23.6726 56.8204 23.6148 57.0573 23.4569C57.2941 23.299 57.4587 23.0538 57.5153 22.7749C57.5718 22.4959 57.5156 22.2059 57.359 21.9683L57.3589 21.9681L56.0871 20.0605L57.8304 19.4794L57.8308 19.4792C58.0992 19.3868 58.3202 19.1923 58.4458 18.9378C58.5715 18.6834 58.5916 18.3896 58.5019 18.1204C58.4121 17.8512 58.2197 17.6283 57.9665 17.5001C57.7133 17.372 57.4198 17.3489 57.1497 17.436L57.1492 17.4362L55.4859 17.9905V16.4039C55.4859 16.1183 55.3725 15.8444 55.1705 15.6424C54.9686 15.4405 54.6946 15.327 54.409 15.327C54.1234 15.327 53.8495 15.4405 53.6475 15.6424C53.4456 15.8444 53.3321 16.1183 53.3321 16.4039V17.9905L51.6693 17.4362C51.6692 17.4362 51.6691 17.4362 51.6691 17.4361C51.5346 17.3899 51.3922 17.3707 51.2503 17.3797C51.1083 17.3888 50.9694 17.4258 50.8418 17.4889C50.7142 17.5519 50.6004 17.6396 50.5069 17.7468C50.4134 17.8541 50.342 17.9789 50.297 18.1139C50.252 18.2489 50.2342 18.3915 50.2446 18.5334C50.2551 18.6753 50.2935 18.8138 50.3578 18.9408C50.4221 19.0677 50.5109 19.1807 50.619 19.2732C50.7272 19.3656 50.8525 19.4356 50.9879 19.4793C50.988 19.4794 50.988 19.4794 50.9881 19.4794L52.7309 20.0603L51.4593 21.9677C51.4593 21.9678 51.4593 21.9678 51.4592 21.9678C51.3799 22.0855 51.3246 22.2176 51.2965 22.3566C51.2684 22.4957 51.2681 22.639 51.2955 22.7782C51.323 22.9175 51.3777 23.0499 51.4565 23.1679C51.5353 23.2859 51.6366 23.3872 51.7547 23.4659C51.8728 23.5446 52.0052 23.5993 52.1445 23.6266C52.2837 23.654 52.427 23.6536 52.5661 23.6254C52.7052 23.5972 52.8373 23.5418 52.9549 23.4624C53.0725 23.3829 53.1732 23.2811 53.2513 23.1627C53.2513 23.1626 53.2513 23.1626 53.2513 23.1626Z" fill="#64D370" stroke="#64D370" stroke-width="0.1"/>
<path d="M8.06672 31.21L6.79514 29.3026L8.53837 28.7215L8.53884 28.7214C8.80716 28.629 9.02817 28.4344 9.15383 28.1799C9.27948 27.9255 9.29962 27.6317 9.20987 27.3625C9.12012 27.0933 8.92773 26.8704 8.67453 26.7422C8.42132 26.6141 8.12777 26.5911 7.85768 26.6782L7.85722 26.6783L6.19395 27.2326V25.6461C6.19395 25.3604 6.08049 25.0865 5.87852 24.8846C5.67656 24.6826 5.40264 24.5691 5.11702 24.5691C4.83141 24.5691 4.55749 24.6826 4.35552 24.8846C4.15356 25.0865 4.0401 25.3604 4.0401 25.6461V27.2326L2.3773 26.6783C2.37722 26.6783 2.37714 26.6783 2.37706 26.6783C2.24257 26.632 2.10024 26.6128 1.9583 26.6218C1.81627 26.6309 1.67744 26.668 1.54984 26.731C1.42224 26.794 1.30839 26.8817 1.21488 26.989C1.12136 27.0962 1.05004 27.221 1.00503 27.356C0.960025 27.491 0.942221 27.6336 0.952653 27.7755C0.963084 27.9175 1.00154 28.0559 1.06581 28.1829C1.13007 28.3099 1.21887 28.4229 1.32706 28.5153C1.43518 28.6077 1.56053 28.6778 1.69587 28.7215C1.69596 28.7215 1.69605 28.7215 1.69614 28.7215L3.43891 29.3025L2.16732 31.2098C2.1673 31.2099 2.16727 31.2099 2.16724 31.21C2.08793 31.3276 2.03264 31.4597 2.00455 31.5988C1.97644 31.7378 1.9761 31.8811 2.00355 32.0204C2.031 32.1596 2.0857 32.292 2.1645 32.41C2.24329 32.528 2.34464 32.6293 2.46271 32.7081C2.58077 32.7868 2.71324 32.8414 2.85248 32.8688C2.99173 32.8961 3.135 32.8957 3.27408 32.8675C3.41316 32.8393 3.5453 32.7839 3.66289 32.7045C3.78046 32.6251 3.88118 32.5232 3.95926 32.4048C3.95928 32.4048 3.9593 32.4047 3.95932 32.4047L5.11702 30.6683L6.27472 32.4048C6.27476 32.4049 6.27479 32.4049 6.27482 32.405C6.3529 32.5234 6.45361 32.6252 6.57115 32.7046C6.68875 32.784 6.82089 32.8394 6.95997 32.8676C7.09904 32.8958 7.24232 32.8962 7.38157 32.8689C7.52081 32.8415 7.65327 32.7869 7.77134 32.7082C7.88941 32.6295 7.99076 32.5282 8.06955 32.4102C8.14835 32.2921 8.20304 32.1597 8.23049 32.0205C8.25794 31.8813 8.25761 31.738 8.2295 31.5989C8.20141 31.4598 8.14612 31.3277 8.06681 31.2101C8.06678 31.21 8.06675 31.21 8.06672 31.21Z" fill="#64D370" stroke="#64D370" stroke-width="0.1"/>
<path d="M10.1214 10.8397L10.1214 10.8397L11.2793 9.10289L12.4371 10.8397L12.4373 10.8399C12.5964 11.0759 12.8425 11.2392 13.1218 11.2943C13.401 11.3493 13.6907 11.2916 13.9275 11.1337C14.1643 10.9758 14.329 10.7306 14.3855 10.4516C14.4421 10.1727 14.3859 9.88269 14.2293 9.64504L14.2291 9.64482L12.9574 7.73722L14.7006 7.15615L14.7011 7.15599C14.9694 7.06359 15.1904 6.86902 15.3161 6.61457C15.4417 6.36012 15.4619 6.06636 15.3721 5.79714C15.2824 5.52792 15.09 5.30501 14.8368 5.17686C14.5836 5.04872 14.29 5.02569 14.0199 5.11279L14.0195 5.11294L12.3562 5.66724V4.0807C12.3562 3.79508 12.2427 3.52116 12.0408 3.3192C11.8388 3.11723 11.5649 3.00377 11.2793 3.00377C10.9937 3.00377 10.7197 3.11723 10.5178 3.3192C10.3158 3.52116 10.2024 3.79508 10.2024 4.0807V5.66724L8.53908 5.11282L8.53908 5.11281L8.53862 5.11266C8.26853 5.02556 7.97498 5.04859 7.72177 5.17674C7.46857 5.30488 7.27618 5.52779 7.18643 5.79701C7.09668 6.06623 7.11682 6.36 7.24247 6.61445C7.36813 6.8689 7.58914 7.06347 7.85746 7.15586L7.85793 7.15602L9.60116 7.73709L8.32943 9.64482C8.32943 9.64482 8.32943 9.64482 8.32942 9.64482C8.17098 9.88245 8.11343 10.1733 8.16942 10.4534C8.22542 10.7334 8.39037 10.9798 8.628 11.1382L8.65574 11.0966L8.628 11.1382C8.86564 11.2967 9.15648 11.3542 9.43655 11.2982C9.71662 11.2423 9.96298 11.0773 10.1214 10.8397Z" fill="#64D370" stroke="#64D370" stroke-width="0.1"/>
<path d="M59.5447 7.21158C60.1395 7.21158 60.6217 6.72942 60.6217 6.13465C60.6217 5.53988 60.1395 5.05773 59.5447 5.05773C58.95 5.05773 58.4678 5.53988 58.4678 6.13465C58.4678 6.72942 58.95 7.21158 59.5447 7.21158Z" fill="#64D370" stroke="#64D370" stroke-width="0.1"/>
<path d="M17.439 22.6155C18.0338 22.6155 18.516 22.1334 18.516 21.5386C18.516 20.9438 18.0338 20.4617 17.439 20.4617C16.8443 20.4617 16.3621 20.9438 16.3621 21.5386C16.3621 22.1334 16.8443 22.6155 17.439 22.6155Z" fill="#64D370" stroke="#64D370" stroke-width="0.1"/>
<path d="M32.8441 3.10385C33.4388 3.10385 33.921 2.62169 33.921 2.02692C33.921 1.43216 33.4388 0.95 32.8441 0.95C32.2493 0.95 31.7671 1.43216 31.7671 2.02692C31.7671 2.62169 32.2493 3.10385 32.8441 3.10385Z" fill="#64D370" stroke="#64D370" stroke-width="0.1"/>
<path d="M61.5985 43.1538C62.1932 43.1538 62.6754 42.6716 62.6754 42.0769C62.6754 41.4821 62.1932 40.9999 61.5985 40.9999C61.0037 40.9999 60.5215 41.4821 60.5215 42.0769C60.5215 42.6716 61.0037 43.1538 61.5985 43.1538Z" fill="#64D370" stroke="#64D370" stroke-width="0.1"/>
</svg>
