<svg width="67" height="67" viewBox="0 0 67 67" fill="none" xmlns="http://www.w3.org/2000/svg">
<path d="M60.0143 45.4226L45.0031 54.3162L39.2852 50.7029H46.474C47.5744 50.7029 48.6296 50.2658 49.4077 49.4878C50.1857 48.7097 50.6228 47.6545 50.6228 46.5541C50.6228 45.4538 50.1857 44.3985 49.4077 43.6205C48.6296 42.8424 47.5744 42.4053 46.474 42.4053H34.1256C32.7054 42.397 31.296 42.6528 29.9692 43.1596L20.3666 47.5197V46.5541C20.3666 46.254 20.2474 45.9662 20.0352 45.754C19.823 45.5418 19.5352 45.4226 19.2351 45.4226H10.9374C10.6373 45.4226 10.3495 45.5418 10.1373 45.754C9.92512 45.9662 9.80591 46.254 9.80591 46.5541V65.4124C9.80591 65.7125 9.92512 66.0003 10.1373 66.2125C10.3495 66.4247 10.6373 66.5439 10.9374 66.5439H19.2351C19.5352 66.5439 19.823 66.4247 20.0352 66.2125C20.2474 66.0003 20.3666 65.7125 20.3666 65.4124V64.2809H43.8188C45.3031 64.2834 46.7501 63.816 47.9525 62.9458L63.9896 51.4573C64.6601 50.8793 65.0972 50.0771 65.2193 49.2004C65.3415 48.3237 65.1403 47.4325 64.6533 46.6933C64.1664 45.9542 63.427 45.4175 62.5733 45.1837C61.7196 44.9498 60.8099 45.0348 60.0143 45.4226ZM18.1036 64.2809H12.0689V47.6856H18.1036V64.2809ZM62.6771 49.6544L46.6324 61.1127C45.8134 61.7035 44.8286 62.0203 43.8188 62.0179H20.3666V50.0014L30.8367 45.2717C31.8866 44.8703 33.0015 44.6657 34.1256 44.6683H46.474C46.9742 44.6683 47.4538 44.867 47.8075 45.2206C48.1612 45.5743 48.3598 46.054 48.3598 46.5541C48.3598 47.0543 48.1612 47.5339 47.8075 47.8876C47.4538 48.2413 46.9742 48.4399 46.474 48.4399H35.3778C35.1322 48.4396 34.8932 48.5193 34.6969 48.6667C34.5005 48.8142 34.3575 49.0216 34.2893 49.2575C34.2212 49.4934 34.2317 49.7451 34.3192 49.9746C34.4066 50.204 34.5664 50.3988 34.7743 50.5294L44.377 56.5641C44.5551 56.6735 44.7601 56.7314 44.9691 56.7314C45.1782 56.7314 45.3831 56.6735 45.5613 56.5641L61.176 47.2934C61.4818 47.1142 61.8448 47.0595 62.1898 47.1406C62.5348 47.2218 62.8354 47.4325 63.0293 47.7292C63.2232 48.0259 63.2956 48.3858 63.2314 48.7343C63.1673 49.0829 62.9715 49.3934 62.6846 49.6016L62.6771 49.6544Z" fill="#64D370"/>
<path d="M65.2495 36.3704H62.6094C62.4188 29.4365 59.7558 22.7991 55.1012 17.6561C50.4465 12.5131 44.1067 9.20344 37.2261 8.32437C37.857 7.61886 38.2703 6.74581 38.416 5.81059C38.5617 4.87537 38.4337 3.91797 38.0472 3.05395C37.6608 2.18992 37.0326 1.45621 36.2383 0.941375C35.4441 0.426539 34.5178 0.152588 33.5713 0.152588C32.6248 0.152588 31.6986 0.426539 30.9043 0.941375C30.1101 1.45621 29.4818 2.18992 29.0954 3.05395C28.709 3.91797 28.5809 4.87537 28.7266 5.81059C28.8723 6.74581 29.2856 7.61886 29.9166 8.32437C23.034 9.2003 16.6915 12.5088 12.035 17.6523C7.37855 22.7957 4.71507 29.4349 4.52575 36.3704H1.13125C0.831162 36.3704 0.543361 36.4897 0.331164 36.7019C0.118967 36.9141 -0.000244141 37.2019 -0.000244141 37.5019C-0.000244141 37.802 0.118967 38.0898 0.331164 38.302C0.543361 38.5142 0.831162 38.6334 1.13125 38.6334H65.2495C65.5496 38.6334 65.8374 38.5142 66.0496 38.302C66.2618 38.0898 66.381 37.802 66.381 37.5019C66.381 37.2019 66.2618 36.9141 66.0496 36.7019C65.8374 36.4897 65.5496 36.3704 65.2495 36.3704ZM33.5676 2.42549C34.0897 2.42549 34.6002 2.58033 35.0343 2.87043C35.4685 3.16054 35.8069 3.57288 36.0067 4.0553C36.2066 4.53773 36.2589 5.06858 36.157 5.58072C36.0551 6.09286 35.8037 6.56329 35.4344 6.93253C35.0652 7.30176 34.5948 7.55321 34.0826 7.65508C33.5705 7.75696 33.0396 7.70467 32.5572 7.50484C32.0748 7.30502 31.6624 6.96662 31.3723 6.53245C31.0822 6.09827 30.9274 5.58782 30.9274 5.06565C30.9274 4.36544 31.2055 3.6939 31.7007 3.19877C32.1958 2.70365 32.8673 2.42549 33.5676 2.42549ZM33.5676 10.346C40.5392 10.3489 47.2354 13.0684 52.235 17.9272C57.2347 22.786 60.1442 29.4017 60.3464 36.3704H6.78875C6.99085 29.4017 9.90045 22.786 14.9001 17.9272C19.8997 13.0684 26.5959 10.3489 33.5676 10.346Z" fill="#64D370"/>
<path d="M27.4856 15.7092C24.3773 16.5893 21.4982 18.1366 19.049 20.2432C16.5998 22.3497 14.6393 24.965 13.3042 27.9067C13.2291 28.0438 13.1832 28.1949 13.1694 28.3506C13.1557 28.5063 13.1743 28.6632 13.2242 28.8113C13.274 28.9594 13.354 29.0956 13.4592 29.2113C13.5643 29.3269 13.6922 29.4196 13.8349 29.4833C13.9776 29.5471 14.1319 29.5806 14.2882 29.5818C14.4445 29.5829 14.5993 29.5517 14.743 29.49C14.8866 29.4283 15.0158 29.3376 15.1226 29.2235C15.2294 29.1094 15.3115 28.9744 15.3635 28.827C16.5655 26.1881 18.3279 23.8426 20.5282 21.9537C22.7284 20.0648 25.3136 18.6778 28.1042 17.8892C28.2473 17.8486 28.381 17.7802 28.4977 17.6879C28.6145 17.5956 28.7118 17.4812 28.7843 17.3512C28.8568 17.2213 28.903 17.0784 28.9203 16.9306C28.9375 16.7828 28.9255 16.633 28.8849 16.4899C28.8443 16.3468 28.7759 16.213 28.6836 16.0963C28.5913 15.9796 28.4769 15.8822 28.3469 15.8097C28.217 15.7372 28.0741 15.691 27.9263 15.6738C27.7785 15.6565 27.6288 15.6686 27.4856 15.7092Z" fill="#64D370"/>
</svg>
