<svg width="35" height="52" viewBox="0 0 35 52" fill="none" xmlns="http://www.w3.org/2000/svg">
<path d="M22.7001 2.04747C21.5295 1.03735 20.0352 0.543493 18.4927 0.656935C17.1904 0.752581 15.9934 1.26869 15.0523 2.11485C13.4064 0.110417 10.545 -0.602714 8.09618 0.557763C5.64746 1.71819 4.38778 4.38429 4.89694 6.92741C3.64607 7.11988 2.48868 7.71964 1.59002 8.667C0.525469 9.78902 -0.0385029 11.2583 0.0020436 12.8039C0.0425384 14.3497 0.682792 15.7871 1.80521 16.8512C2.18711 17.2132 3.02725 17.7273 6.36305 18.7959C7.57558 19.1843 8.7961 19.5422 9.69699 19.7985C8.66585 22.3269 8.65672 25.2629 9.91552 27.9192C11.2208 30.6738 15.302 36.9071 19.6191 42.1744C22.029 45.1147 24.1892 47.3719 26.0398 48.8831C28.5389 50.9241 30.4698 51.5767 31.9431 50.8786C33.4163 50.1804 34.1339 48.2726 34.1368 45.0461C34.139 42.6569 33.7599 39.5556 33.0102 35.8286C31.6671 29.1519 29.427 22.0461 28.1215 19.2916C26.8627 16.6353 24.5845 14.7833 21.9747 13.9803C22.347 13.1205 22.8429 11.949 23.3098 10.765C24.5951 7.50649 24.7292 6.53077 24.6908 6.00566C24.5779 4.46341 23.8709 3.05773 22.7001 2.04747ZM9.02769 2.52342C10.8298 1.66941 12.9901 2.43921 13.8432 4.23946C14.459 5.53886 15.283 10.5687 15.8338 14.0478C15.4531 14.175 15.0759 14.3256 14.7043 14.5017C14.3406 14.674 13.9925 14.8661 13.6595 15.0749C11.0849 12.1938 7.90361 8.59593 7.30698 7.33693C6.45385 5.53667 7.22577 3.37734 9.02769 2.52342ZM3.30163 15.2726C2.60137 14.6087 2.20181 13.7117 2.17659 12.747C2.15127 11.782 2.50335 10.8648 3.1681 10.1641C3.85932 9.4358 4.79541 9.03648 5.78414 9.03575C6.81091 10.6094 9.02863 13.1533 11.9507 16.4267C11.5084 16.8629 11.1106 17.3361 10.7606 17.839C6.4292 16.6297 3.73842 15.6389 3.30163 15.2726ZM26.1559 20.223C27.4065 22.8616 29.5672 29.7423 30.8778 36.2574C32.7215 45.4238 31.8294 48.5254 31.0116 48.9129C30.2868 49.2564 27.8753 48.2947 23.2117 43.0397L26.2544 41.5978C26.7972 41.3405 27.0287 40.692 26.7715 40.1492C26.5142 39.6064 25.8657 39.3749 25.3229 39.6321L21.7424 41.3289C21.5971 41.1545 21.4505 40.9775 21.3015 40.7956C17.0888 35.6557 13.1316 29.6264 11.8813 26.9876C10.0161 23.0517 11.7005 18.3323 15.636 16.4672C19.5716 14.6022 24.2906 16.2872 26.1559 20.223ZM22.5209 6.1549C22.5283 6.73379 21.5914 9.44406 19.7845 13.5627C19.1818 13.5156 18.5722 13.5231 17.9628 13.5868C17.3143 9.50519 16.7145 5.99863 16.1222 4.13675C16.7489 3.37182 17.6507 2.90002 18.6521 2.82639C19.6153 2.75555 20.5482 3.06388 21.279 3.69448C22.0098 4.32484 22.451 5.20207 22.5209 6.1549Z" fill="black"/>
<path d="M18.9377 23.5806C18.6805 23.0378 18.032 22.8063 17.4891 23.0635L14.0116 24.7115C13.4688 24.9687 13.2373 25.6173 13.4945 26.1601C13.7518 26.7029 14.4003 26.9344 14.9431 26.6772L18.4207 25.0292C18.9635 24.7719 19.195 24.1234 18.9377 23.5806Z" fill="black"/>
<path d="M26.0951 27.7743L20.5307 30.4113C19.9878 30.6685 19.7563 31.317 20.0136 31.8599C20.2708 32.4027 20.9194 32.6342 21.4622 32.3769L27.0267 29.74C27.5695 29.4827 27.801 28.8342 27.5437 28.2914C27.2865 27.7486 26.638 27.5171 26.0951 27.7743Z" fill="black"/>
<path fill-rule="evenodd" clip-rule="evenodd" d="M18.5294 1.15559C17.3373 1.24314 16.2451 1.71479 15.3866 2.48666L14.9978 2.8363L14.6659 2.43215C13.1619 0.60053 10.5466 -0.0501509 8.3103 1.0096C6.07418 2.06928 4.92194 4.50535 5.38721 6.82925L5.48988 7.34206L4.97298 7.42159C3.83199 7.59716 2.77536 8.14394 1.95277 9.01111C0.979458 10.037 0.464804 11.3778 0.501872 12.7908C0.538892 14.204 1.1231 15.5155 2.14922 16.4884C2.43614 16.7603 3.16577 17.2467 6.51558 18.3197C7.72099 18.7059 8.93583 19.0621 9.83382 19.3176L10.3708 19.4704L10.16 19.9873C9.17939 22.3918 9.17133 25.1812 10.3674 27.705C11.6481 30.408 15.7014 36.6057 20.0058 41.8575C22.4054 44.7852 24.5417 47.0142 26.356 48.4958L26.0398 48.8831C24.1892 47.3719 22.029 45.1147 19.6191 42.1744C15.302 36.9071 11.2208 30.6738 9.91552 27.9192C8.73385 25.4256 8.6695 22.6857 9.51902 20.2677C9.57446 20.1099 9.63381 19.9534 9.69699 19.7985C9.5445 19.7551 9.38286 19.7088 9.21365 19.66C8.38316 19.4202 7.37035 19.1186 6.36305 18.7959C3.02725 17.7273 2.18711 17.2132 1.80521 16.8512C0.682792 15.7871 0.0425384 14.3497 0.0020436 12.8039C-0.0385029 11.2583 0.525469 9.78902 1.59002 8.667C2.36997 7.84477 3.34483 7.2844 4.40653 7.02487C4.56811 6.98537 4.73171 6.95283 4.89694 6.92741C4.86404 6.76308 4.83853 6.59824 4.82024 6.43333C4.55554 4.04603 5.80569 1.64321 8.09618 0.557762C10.3868 -0.527729 13.0384 0.0260808 14.7185 1.74263C14.8345 1.8612 14.946 1.98533 15.0523 2.11485C15.1766 2.00308 15.3054 1.89707 15.4383 1.79702C16.3115 1.13968 17.3625 0.739947 18.4927 0.656935C20.0352 0.543493 21.5295 1.03735 22.7001 2.04747L22.3735 2.42602C21.3033 1.50256 19.9397 1.05187 18.5294 1.15559ZM24.6908 6.00566C24.5779 4.46341 23.8709 3.05773 22.7001 2.04747L22.3735 2.42602C23.4438 3.34958 24.0888 4.63218 24.1921 6.04207M24.6908 6.00566C24.7292 6.53077 24.5951 7.50649 23.3098 10.765L22.8447 10.5816C24.1353 7.30941 24.2209 6.43667 24.1921 6.04207M22.1736 13.5185C22.514 12.7237 22.9219 11.7487 23.3098 10.765L22.8447 10.5816C22.3805 11.7587 21.8869 12.9247 21.5159 13.7817L21.2941 14.294L21.8277 14.4582C24.3095 15.2218 26.4737 16.9819 27.6697 19.5057C28.9506 22.2085 31.1809 29.2702 32.52 35.9272C33.2665 39.6383 33.6389 42.7032 33.6368 45.0456C33.6354 46.6293 33.4576 47.8458 33.1233 48.7345C32.7927 49.6136 32.32 50.1466 31.729 50.4267C31.1379 50.7068 30.426 50.7351 29.5362 50.4343C28.6367 50.1303 27.5826 49.4976 26.356 48.4958L26.0398 48.8831C28.5389 50.9241 30.4698 51.5767 31.9431 50.8786C33.4163 50.1804 34.1339 48.2726 34.1368 45.0461C34.139 42.6569 33.7599 39.5556 33.0102 35.8286C31.6671 29.1519 29.427 22.0461 28.1215 19.2916C26.9398 16.7981 24.8599 15.0133 22.4506 14.1397C22.2933 14.0827 22.1347 14.0295 21.9747 13.9803C22.0377 13.8348 22.1043 13.6804 22.1736 13.5185ZM16.3939 14.3878L15.9923 14.522C15.63 14.6431 15.2714 14.7863 14.9185 14.9535C14.5731 15.1172 14.2422 15.2997 13.9252 15.4985L13.5678 15.7226L13.2867 15.4081C11.9996 13.9678 10.556 12.3429 9.35884 10.9195C8.76039 10.2079 8.22008 9.54259 7.79019 8.97327C7.36752 8.41352 7.02841 7.91667 6.85515 7.55104C5.88358 5.50086 6.76251 3.04357 8.81357 2.07159C10.8648 1.09954 13.3234 1.9751 14.295 4.02534C14.4732 4.40133 14.65 5.00454 14.8224 5.71272C14.9977 6.43316 15.1775 7.30178 15.3541 8.23304C15.7075 10.0961 16.0523 12.23 16.3277 13.9696L16.3939 14.3878ZM3.30163 15.2726C2.60137 14.6087 2.2738 13.7555 2.24857 12.7908C2.22326 11.8259 2.50335 10.8648 3.1681 10.1641C3.85932 9.43579 4.79541 9.03648 5.78414 9.03575C6.81091 10.6094 9.02863 13.1533 11.9507 16.4267C11.5084 16.8629 11.1106 17.3361 10.7606 17.839C6.4292 16.6297 3.73842 15.6389 3.30163 15.2726ZM2.80543 9.81995C3.59095 8.99223 4.658 8.53658 5.78377 8.53575L6.05479 8.53555L6.20288 8.76253C7.20404 10.2969 9.39055 12.8079 12.3237 16.0937L12.6405 16.4486L12.3018 16.7826C11.8815 17.1972 11.5035 17.6468 11.1711 18.1246L10.9682 18.4161L10.6262 18.3206C8.45319 17.7139 6.68686 17.1607 5.40527 16.7115C4.76503 16.4871 4.24092 16.287 3.84546 16.1177C3.47356 15.9585 3.15489 15.8021 2.98036 15.6558M22.8377 43.3716L22.3954 42.8732L26.0403 41.1459C26.3336 41.007 26.4586 40.6566 26.3196 40.3633C26.1807 40.07 25.8303 39.945 25.537 40.0839L21.6064 41.9466L21.3584 41.649C21.2123 41.4738 21.0648 41.2957 20.9147 41.1125C16.69 35.9578 12.7046 29.8927 11.4294 27.2017C9.44599 23.0163 11.2368 17.9987 15.4219 16.0154C19.6071 14.0321 24.6242 15.8236 26.6077 20.0088C27.883 22.6997 30.0536 29.6249 31.368 36.1588L30.8778 36.2574C29.5672 29.7423 27.4065 22.8616 26.1559 20.223C24.2906 16.2872 19.5716 14.6022 15.636 16.4672C11.7005 18.3323 10.0161 23.0517 11.8813 26.9876C13.1316 29.6264 17.0888 35.6557 21.3015 40.7956C21.4505 40.9775 21.5971 41.1545 21.7424 41.3289L25.3229 39.6321C25.8657 39.3749 26.5142 39.6064 26.7715 40.1492C27.0287 40.692 26.7972 41.3405 26.2544 41.5978L23.2117 43.0397C23.329 43.1719 23.4449 43.3014 23.5594 43.4282C27.9956 48.3423 30.3051 49.2477 31.0116 48.9129C31.8294 48.5254 32.7215 45.4238 30.8778 36.2574L31.368 36.1588C32.294 40.7626 32.5397 43.8743 32.4422 45.9013C32.3935 46.9136 32.2583 47.6757 32.0672 48.2252C31.8843 48.7512 31.6159 49.1798 31.2257 49.3647C30.8766 49.5302 30.4413 49.4948 29.9952 49.3568C29.5324 49.2137 28.9726 48.9344 28.3106 48.4913C26.9851 47.604 25.1842 46.0156 22.8377 43.3716ZM23.0207 6.1334L23.0209 6.14852C23.0238 6.37815 22.9434 6.72504 22.8311 7.11564C22.7117 7.53038 22.5348 8.06373 22.303 8.70202C21.8392 9.9797 21.1488 11.6973 20.2424 13.7636L20.0997 14.0888L19.7456 14.0612C19.1731 14.0165 18.5939 14.0236 18.0148 14.0841L17.5434 14.1334L17.469 13.6653C16.818 9.56814 16.2239 6.1058 15.6457 4.28832L15.5635 4.02976L15.7354 3.81987C16.4489 2.94897 17.4773 2.41143 18.6154 2.32774C19.7108 2.24718 20.7743 2.59864 21.6056 3.31587C22.4363 4.03245 22.9399 5.03249 23.0196 6.11832L23.0207 6.1334ZM21.279 3.69448C22.0098 4.32484 22.451 5.20207 22.5209 6.1549C22.5283 6.73379 21.5914 9.44406 19.7845 13.5627C19.1818 13.5156 18.5722 13.5231 17.9628 13.5868C17.3143 9.50519 16.7145 5.99863 16.1222 4.13675C16.7489 3.37182 17.6507 2.90002 18.6521 2.82639C19.6153 2.75555 20.5482 3.06388 21.279 3.69448ZM2.80543 9.81995C1.77747 10.9031 1.01169 14.0098 2.98036 15.6558ZM18.4859 23.7947C18.3469 23.5014 17.9965 23.3764 17.7033 23.5153L14.2257 25.1633C13.9324 25.3023 13.8074 25.6527 13.9464 25.946C14.0853 26.2392 14.4357 26.3643 14.729 26.2253L18.2065 24.5773C18.4998 24.4384 18.6249 24.088 18.4859 23.7947ZM26.3093 28.2261L20.7448 30.8631C20.4515 31.0021 20.3264 31.3525 20.4654 31.6457C20.6044 31.939 20.9548 32.0641 21.2481 31.9251L26.8125 29.2881C27.1058 29.1492 27.2309 28.7988 27.0919 28.5055C26.9529 28.2122 26.6025 28.0872 26.3093 28.2261ZM9.02769 2.52342C10.8298 1.66941 12.9901 2.43921 13.8432 4.23946C14.459 5.53886 15.283 10.5687 15.8338 14.0478C15.4531 14.175 15.0759 14.3256 14.7043 14.5017C14.3406 14.674 13.9925 14.8661 13.6595 15.0749C11.0849 12.1938 7.90361 8.59593 7.30698 7.33693C6.45385 5.53667 7.22577 3.37734 9.02769 2.52342ZM18.9377 23.5806C18.6805 23.0378 18.032 22.8063 17.4891 23.0635L14.0116 24.7115C13.4688 24.9687 13.2373 25.6173 13.4945 26.1601C13.7518 26.7029 14.4003 26.9344 14.9431 26.6772L18.4207 25.0292C18.9635 24.7719 19.195 24.1234 18.9377 23.5806ZM20.5307 30.4113L26.0951 27.7743C26.638 27.5171 27.2865 27.7486 27.5437 28.2914C27.801 28.8342 27.5695 29.4827 27.0267 29.74L21.4622 32.3769C20.9194 32.6342 20.2708 32.4027 20.0136 31.8599C19.7563 31.317 19.9878 30.6685 20.5307 30.4113Z" fill="#F5FAFF"/>
</svg>
